<?xml version="1.0" encoding="UTF-8" standalone="no"?>
<!-- Created with Inkscape (http://www.inkscape.org/) -->

<svg
   width="33.855"
   height="32.005619mm"
   viewBox="0 0 33.855287 32.005619"
   version="1.1"
   id="svg1"
   xmlns="http://www.w3.org/2000/svg"
   xmlns:svg="http://www.w3.org/2000/svg">
  <defs
     id="defs1" />
  <g
     id="layer1"
     transform="translate(-54.966949,-197.51168)">
    <path
       id="path9"
       style="display:inline;fill:#ffffff;stroke-width:950.222"
       d="m 58.009397,197.51256 c 0.0021,0.006 0.0069,0.0168 0.355017,0.79324 0.34809,0.77644 1.039397,2.31889 1.415417,3.14036 0.37603,0.82148 0.436817,0.9219 1.533757,1.79008 1.09694,0.86818 3.22995,2.50409 4.30568,3.32486 1.07568,0.82041 1.093775,0.8264 1.102775,0.8294 0.0091,0.003 0.0094,0.003 -0.21084,-0.58962 -0.22022,-0.59245 -0.660766,-1.77739 -0.896586,-2.37764 -0.23582,-0.60026 -0.266557,-0.61597 -1.500167,-1.67225 -1.2336,-1.05629 -3.669763,-3.15329 -4.888073,-4.20077 -1.21798,-1.04766 -1.21898,-1.04367 -1.21698,-1.03766 z m 27.770395,0.0584 c 0.002,-0.006 0.001,-0.01 -1.21698,1.03766 -1.21831,1.04748 -3.65447,3.14448 -4.88807,4.20078 -1.23361,1.05627 -1.26435,1.07199 -1.50017,1.67225 -0.23582,0.60024 -0.67636,1.78517 -0.89658,2.37763 -0.22021,0.59245 -0.21989,0.59251 -0.21084,0.58963 0.009,-0.003 0.027,-0.009 1.10277,-0.82941 1.07573,-0.82077 3.20874,-2.45668 4.30568,-3.32486 1.09694,-0.86818 1.15773,-0.9686 1.53376,-1.79007 0.37602,-0.82149 1.06733,-2.36395 1.41542,-3.14038 0.3481,-0.77645 0.35288,-0.7868 0.35501,-0.79323 z m -30.812587,5.79861 c 0.0027,0.009 0.0073,0.0237 0.07648,0.22273 0.06918,0.19899 0.202731,0.58236 0.354501,0.9865 0.15177,0.40415 0.321478,0.82896 0.433048,1.10277 0.11157,0.27381 0.165265,0.3963 0.257865,0.55708 0.09257,0.16078 0.224174,0.35959 1.852084,1.66966 1.6279,1.31006 4.751726,3.73169 6.313826,4.94234 1.56211,1.21065 1.562181,1.21043 1.272791,0.58756 -0.28939,-0.62287 -0.868226,-1.86868 -1.161686,-2.49546 -0.29347,-0.62679 -0.301835,-0.63477 -1.821595,-1.79627 -1.51976,-1.16149 -4.550679,-3.47678 -6.065779,-4.63279 -1.51553,-1.15602 -1.514536,-1.15312 -1.511536,-1.14412 z m 33.854777,0.0584 c 0.003,-0.009 0.004,-0.0119 -1.51153,1.14412 -1.5151,1.15601 -4.54602,3.4713 -6.06578,4.63279 -1.51976,1.16149 -1.52813,1.16948 -1.8216,1.79627 -0.29346,0.62678 -0.87229,1.87258 -1.16168,2.49546 -0.28939,0.62287 -0.28932,0.62308 1.27279,-0.58756 1.5621,-1.21065 4.68593,-3.63227 6.31383,-4.94233 1.62791,-1.31007 1.75951,-1.50889 1.85208,-1.66967 0.0926,-0.16078 0.14629,-0.28326 0.25786,-0.55707 0.11157,-0.27381 0.28128,-0.69864 0.43305,-1.10278 0.15177,-0.40415 0.28532,-0.78751 0.3545,-0.9865 0.0692,-0.199 0.0738,-0.21398 0.0765,-0.22274 z M 60.085756,215.3523 c -0.041,10e-4 0.01671,0.0855 0.117305,0.22634 0.2144,0.30015 0.623646,0.8573 1.073836,1.41077 0.45019,0.55349 0.941376,1.10322 1.543576,1.68982 0.60221,0.58662 1.315001,1.2102 2.053621,1.70326 0.73861,0.49307 1.502679,0.85522 1.902209,1.04231 0.39956,0.18714 0.434669,0.19864 0.452169,0.20464 0.01753,0.006 0.01755,0.006 -0.298173,-0.42065 -0.31571,-0.42679 -0.947045,-1.28033 -1.438155,-1.865 -0.49112,-0.58465 -0.842149,-0.90068 -1.742529,-1.54771 -0.90038,-0.64702 -2.350236,-1.62519 -3.065446,-2.09289 -0.36878,-0.24117 -0.542179,-0.34688 -0.594279,-0.35088 -0.0015,-1.3e-4 -0.0028,-4e-5 -0.0041,0 z m 23.613546,0.0584 c -0.0521,0.004 -0.2255,0.10973 -0.59428,0.35088 -0.71521,0.46771 -2.16507,1.44587 -3.06545,2.09289 -0.90038,0.64703 -1.25141,0.96307 -1.74253,1.54771 -0.49111,0.58467 -1.12244,1.43821 -1.43815,1.86502 -0.31572,0.42679 -0.3157,0.42649 -0.29817,0.42063 0.0175,-0.006 0.0526,-0.0175 0.45217,-0.20464 0.39953,-0.18709 1.16359,-0.54925 1.9022,-1.04231 0.73862,-0.49306 1.45142,-1.11664 2.05363,-1.70326 0.6022,-0.5866 1.09338,-1.13632 1.54357,-1.6898 0.45019,-0.55348 0.85944,-1.11063 1.07384,-1.41078 0.10384,-0.14539 0.16213,-0.23049 0.11317,-0.22634 z m -18.134811,8.91884 c 0.02095,0.0369 0.0612,0.10731 0.160197,0.28009 0.09905,0.17277 0.257002,0.44801 0.660942,1.14876 0.22449,0.38944 0.524912,0.91032 0.806152,1.3932 0.32043,0.55775 0.685471,1.18999 0.906921,1.57407 0.34037,0.59035 0.342173,0.59405 0.384473,0.61805 0.04229,0.024 0.125299,0.069 0.169499,0.092 0.0359,0.0183 0.04613,0.0227 0.05013,0.0233 0.001,0 0.0019,3e-5 0.0021,0 h 5.17e-4 c 0.0026,-7.8e-4 0.0024,-0.004 -0.0088,-0.35656 -0.0111,-0.3529 -0.03344,-1.05575 -0.04444,-1.40715 -0.0109,-0.35163 -0.01092,-0.35164 -0.01292,-0.35864 v -5.1e-4 -5.2e-4 -5.2e-4 c 3.14e-4,-0.002 3.58e-4,-0.007 -5.17e-4,-0.016 -0.002,-0.0163 -0.0063,-0.0488 -0.0083,-0.0656 -0.0022,-0.0168 -0.0041,-0.0191 -0.518832,-0.51108 -0.51469,-0.49196 -1.542925,-1.47483 -2.056205,-1.96422 -0.51333,-0.48945 -0.511826,-0.48545 -0.490926,-0.44855 z m 12.660211,0.0584 c 0.0209,-0.0369 0.0224,-0.0409 -0.49093,0.44855 -0.51328,0.48939 -1.54151,1.47226 -2.0562,1.96422 -0.514703,0.49195 -0.516594,0.49423 -0.518834,0.51108 -0.0022,0.0168 -0.006,0.0493 -0.0078,0.0656 -10e-4,0.01 -0.0011,0.0139 -5.17e-4,0.016 v 5.1e-4 5.1e-4 5.2e-4 c -0.0021,0.007 -0.0019,0.007 -0.01292,0.35863 -0.01102,0.35141 -0.03325,1.05425 -0.04444,1.40715 -0.01118,0.35291 -0.01154,0.3558 -0.0088,0.35658 h 5.17e-4 c 2e-4,3e-5 0.0012,0 0.0016,0 0.004,-5.6e-4 0.01421,-0.005 0.05013,-0.0233 0.04422,-0.023 0.127204,-0.068 0.169494,-0.092 0.0423,-0.024 0.0441,-0.0277 0.38448,-0.61805 0.22145,-0.38408 0.58649,-1.01631 0.90692,-1.57406 0.28124,-0.48288 0.58166,-1.00376 0.80615,-1.3932 0.40394,-0.70075 0.56189,-0.97599 0.66094,-1.14877 0.0991,-0.17278 0.13925,-0.24315 0.1602,-0.28008 z" />
  </g>
</svg>
