<?xml version="1.0" encoding="UTF-8" standalone="no"?>
<!-- Created with Inkscape (http://www.inkscape.org/) -->

<svg
   width="12.162565mm"
   height="25.327141mm"
   viewBox="0 0 12.162565 25.327141"
   version="1.1"
   id="svg1"
   xml:space="preserve"
   inkscape:version="1.4.2 (f4327f4, 2025-05-13)"
   sodipodi:docname="izquierda.svg"
   xmlns:inkscape="http://www.inkscape.org/namespaces/inkscape"
   xmlns:sodipodi="http://sodipodi.sourceforge.net/DTD/sodipodi-0.dtd"
   xmlns="http://www.w3.org/2000/svg"
   xmlns:svg="http://www.w3.org/2000/svg"><sodipodi:namedview
     id="namedview1"
     pagecolor="#505050"
     bordercolor="#eeeeee"
     borderopacity="1"
     inkscape:showpageshadow="0"
     inkscape:pageopacity="0"
     inkscape:pagecheckerboard="0"
     inkscape:deskcolor="#505050"
     inkscape:document-units="mm"
     inkscape:zoom="11.616723"
     inkscape:cx="15.150572"
     inkscape:cy="29.311193"
     inkscape:window-width="1920"
     inkscape:window-height="1017"
     inkscape:window-x="-8"
     inkscape:window-y="-8"
     inkscape:window-maximized="1"
     inkscape:current-layer="layer1" /><defs
     id="defs1"><inkscape:path-effect
       effect="bspline"
       id="path-effect2"
       is_visible="true"
       lpeversion="1.3"
       weight="33.333333"
       steps="2"
       helper_size="0"
       apply_no_weight="true"
       apply_with_weight="true"
       only_selected="false"
       uniform="false" /></defs><g
     inkscape:label="Capa 1"
     inkscape:groupmode="layer"
     id="layer1"
     transform="translate(-38.239829,-175.38986)"><rect
       style="opacity:1;fill:#ffffff;stroke-width:735.013"
       id="rect128"
       width="11.319709"
       height="24.689262"
       x="38.532745"
       y="175.73763" /><path
       id="path1"
       style="fill:#000000"
       d="M 38.239829,175.38986 V 200.717 h 12.162565 v -25.32714 z m 6.730339,0.41599 c 0.29863,-3.7e-4 0.629429,0.12831 0.969967,0.38034 0.495032,0.36639 0.804145,0.96662 1.072286,2.07895 0.348752,1.44673 0.335504,1.71968 -0.179318,3.66127 -0.549832,2.0736 -0.550255,2.10979 -0.05323,3.08405 0.276612,0.5422 1.016524,1.43308 1.644344,1.97921 l 1.141532,0.9927 -1.243335,1.16272 c -0.68376,0.63958 -1.426985,1.55036 -1.651579,2.02365 -0.375813,0.79197 -0.367069,0.99311 0.109038,2.52284 0.284528,0.9142 0.517281,2.03917 0.517281,2.50011 0,0.46094 -0.116342,1.24311 -0.258382,1.7384 -0.14205,0.49528 -0.519859,1.1793 -0.839743,1.5198 -0.319883,0.3405 -0.851656,0.61908 -1.18184,0.61908 -0.330184,0 -0.780326,-0.25645 -0.999938,-0.56999 -0.297048,-0.42409 -0.328864,-0.70135 -0.124541,-1.08314 0.176243,-0.32934 0.456323,-0.46585 0.781348,-0.38085 0.348716,0.0912 0.505879,-0.004 0.504879,-0.30593 -8.12e-4,-0.24104 -0.130518,-0.91447 -0.288355,-1.49655 -0.157838,-0.58209 -0.646545,-1.79556 -1.085722,-2.69647 -0.719632,-1.47621 -0.847738,-1.6067 -1.299662,-1.32447 -0.364028,0.2273 -0.625629,0.23481 -0.954464,0.0274 -0.249138,-0.15715 -0.730216,-0.81059 -1.069185,-1.45159 -0.338969,-0.641 -0.908797,-1.47039 -1.266073,-1.8433 -0.357276,-0.37292 -0.649572,-0.76591 -0.649572,-0.87333 0,-0.10742 0.45277,-0.81529 1.00614,-1.57303 0.553369,-0.75774 1.167757,-1.7034 1.365291,-2.10117 0.197534,-0.39778 0.584137,-0.7944 0.858862,-0.8816 0.274726,-0.0872 0.667297,-0.0186 0.872815,0.15193 0.301216,0.24999 0.47919,0.13864 0.917774,-0.57361 0.299243,-0.48596 0.780565,-1.64037 1.069185,-2.56521 0.28862,-0.92483 0.524516,-1.91487 0.524516,-2.20039 0,-0.39329 -0.124462,-0.47992 -0.513147,-0.35656 -0.355151,0.11272 -0.6023,-0.004 -0.803052,-0.37879 -0.202169,-0.37777 -0.20728,-0.69677 -0.01654,-1.05317 0.150486,-0.28119 0.526408,-0.59136 0.835091,-0.68936 0.09156,-0.0291 0.187777,-0.0438 0.287321,-0.0439 z m 0.119372,0.4961 c -0.05326,-7.8e-4 -0.106508,0.002 -0.15968,0.008 -0.480934,0.056 -0.700864,0.25997 -0.764294,0.70848 -0.07845,0.55465 -0.0097,0.6097 0.578776,0.46199 0.367486,-0.0922 0.72392,-0.0774 0.7922,0.0331 0.06828,0.11048 0.0066,0.84951 -0.13746,1.64228 -0.144092,0.79278 -0.58956,2.16125 -0.989603,3.04116 -0.400044,0.87991 -0.945318,1.77849 -1.211813,1.99677 -0.369282,0.30243 -0.510989,0.31821 -0.595829,0.0661 -0.06122,-0.1819 -0.325267,-0.33073 -0.586527,-0.33073 -0.286783,0 -0.6153,0.34075 -0.829407,0.8599 -0.195051,0.47294 -0.817275,1.36313 -1.382862,1.97817 l -1.028361,1.11828 1.086239,1.23403 c 0.597463,0.67876 1.086239,1.43717 1.086239,1.68517 0,0.248 0.211237,0.64192 0.469222,0.8754 0.292579,0.26478 0.603672,0.3408 0.827339,0.20257 0.197219,-0.12189 0.276724,-0.35394 0.176734,-0.51573 -0.09999,-0.1618 -0.0572,-0.29404 0.09508,-0.29404 0.152283,0 0.599223,0.50602 0.993221,1.12448 0.393998,0.61846 0.974925,1.83885 1.290878,2.71198 0.315952,0.87312 0.653631,2.02466 0.750341,2.55901 0.10762,0.59467 0.06549,1.03968 -0.10852,1.14722 -0.156361,0.0966 -0.455924,0.0328 -0.666109,-0.14159 -0.3042,-0.25246 -0.415894,-0.22915 -0.547254,0.11317 -0.09076,0.23652 -0.01355,0.61256 0.171566,0.83561 0.185115,0.22301 0.505749,0.34036 0.712618,0.26096 0.206868,-0.0793 0.482484,-0.14417 0.612366,-0.14417 0.129882,0 0.417735,-0.3515 0.639754,-0.78083 0.237923,-0.4601 0.403593,-1.47239 0.403593,-2.466 0,-0.92719 -0.19058,-2.24575 -0.423747,-2.93006 -0.233172,-0.68431 -0.35251,-1.52912 -0.2651,-1.8774 0.08741,-0.34827 0.748903,-1.27888 1.470195,-2.06809 l 1.311548,-1.43506 -1.037663,-1.01337 c -0.57075,-0.55733 -1.233482,-1.42584 -1.472779,-1.93012 -0.405338,-0.85418 -0.403989,-1.03237 0.0217,-2.60501 0.295418,-1.09137 0.418815,-2.289 0.348815,-3.38842 -0.07556,-1.18669 -0.260807,-1.86876 -0.612365,-2.25723 -0.277677,-0.30682 -0.646241,-0.48084 -1.01906,-0.48627 z m 1.18184,1.80661 c 0.127501,0 0.232028,0.17283 0.232028,0.38395 0,0.21112 -0.132627,1.01479 -0.294556,1.78594 -0.161929,0.77114 -0.677543,2.23541 -1.145667,3.25406 -0.531179,1.15585 -1.334441,2.32679 -2.13682,3.11506 l -1.285193,1.26297 1.18339,1.25057 c 0.651129,0.68775 1.397287,1.50797 1.65778,1.82263 0.260493,0.31466 0.500421,0.73137 0.533301,0.92604 0.03288,0.19466 0.307244,1.00883 0.609782,1.80919 0.302539,0.80037 0.632363,1.94877 0.732772,2.5523 0.103016,0.6192 0.07341,1.16492 -0.0677,1.25212 -0.138334,0.0855 -0.304354,-0.41061 -0.371554,-1.11001 -0.06681,-0.69535 -0.42504,-1.92784 -0.796334,-2.73885 -0.371293,-0.81102 -1.119463,-1.96628 -1.66243,-2.56728 -0.542967,-0.601 -0.891842,-1.09244 -0.775147,-1.09244 0.116695,0 0.517721,0.26502 0.890902,0.58911 0.08017,0.0696 0.124957,0.10286 0.136942,0.10283 h 5.17e-4 l 5.17e-4,-5.1e-4 h 5.17e-4 5.16e-4 v -5.2e-4 l 5.17e-4,-5.2e-4 5.17e-4,-5.1e-4 c 2.6e-5,-2e-4 -5e-6,-0.001 0,-0.002 -0.0032,-0.0452 -0.387562,-0.47651 -1.026294,-1.14309 l -1.564762,-1.63245 1.498616,-1.49862 c 0.824228,-0.82423 1.492264,-1.63484 1.484664,-1.80092 -0.0076,-0.16609 -0.207485,-0.0243 -0.443901,0.31522 -0.236416,0.33949 -1.123065,1.08804 -1.970422,1.66347 -0.847357,0.57543 -1.540474,1.14704 -1.540474,1.2702 0,0.12317 0.476348,0.65455 1.05885,1.18081 0.582503,0.52625 0.935506,0.95705 0.783931,0.95705 -0.151575,0 -0.777267,-0.46819 -1.390096,-1.04025 l -1.114144,-1.04025 0.777214,-0.81183 c 0.427408,-0.44659 0.935856,-0.81184 1.130163,-0.81184 0.194307,0 0.868255,-0.47462 1.497583,-1.05472 0.629328,-0.58009 1.24088,-0.96704 1.359091,-0.85989 0.11821,0.10715 0.137688,-0.0199 0.04341,-0.28216 -0.09428,-0.26219 -0.06247,-0.40972 0.07028,-0.32762 0.132752,0.082 0.504691,-0.53664 0.826823,-1.37511 0.322132,-0.83848 0.643895,-2.14954 0.714685,-2.91352 0.07079,-0.76398 0.232683,-1.38906 0.360184,-1.38906 z m -0.766361,7.0621 c 0.147688,-0.004 0.251252,0.14432 0.425814,0.39377 0.23633,0.33772 0.815563,1.04132 1.28726,1.56373 l 0.857829,0.94981 -0.807703,0.76998 c -0.444261,0.42347 -1.002387,1.0974 -1.240235,1.49759 -0.237849,0.40018 -0.495848,0.71488 -0.573608,0.69918 -0.07776,-0.0157 -0.719334,-0.66425 -1.425236,-1.44126 -0.705901,-0.77702 -1.241685,-1.52633 -1.190625,-1.66501 0.05106,-0.13867 0.671005,-0.86766 1.377694,-1.62006 0.762903,-0.81225 1.072958,-1.14221 1.28881,-1.14773 z m 0.07235,0.39119 -1.256771,1.22421 -1.256771,1.22422 1.113627,1.13481 c 0.612363,0.62395 1.161528,1.1343 1.220598,1.1343 0.05907,0 0.555727,-0.50532 1.103808,-1.12293 l 0.996839,-1.12293 -0.960665,-1.23558 z m -1.387512,5.63686 c -0.01172,4.8e-4 -0.02163,0.005 -0.02946,0.0124 -0.06263,0.0626 0.0371,0.29549 0.221175,0.51728 0.184076,0.2218 0.380496,0.40307 0.436666,0.40307 0.004,0 0.0074,-0.001 0.0098,-0.004 0.02982,-0.0325 -0.06673,-0.25147 -0.230477,-0.51367 -0.155422,-0.24887 -0.325718,-0.41879 -0.407727,-0.41548 z" /></g></svg>
