<?xml version="1.0" encoding="UTF-8" standalone="no"?>
<!-- Created with Inkscape (http://www.inkscape.org/) -->

<svg
   width="33.237717mm"
   height="32.536911mm"
   viewBox="0 0 33.237717 32.536911"
   version="1.1"
   id="svg1"
   xmlns="http://www.w3.org/2000/svg"
   xmlns:svg="http://www.w3.org/2000/svg">
  <defs
     id="defs1" />
  <g
     id="layer1"
     transform="translate(-121.44375,-79.11042)">
    <ellipse
       style="fill:#000000;fill-opacity:1;stroke-width:899.986"
       id="path1-2"
       cx="138.06261"
       cy="95.378876"
       rx="16.618858"
       ry="16.268456" />
    <ellipse
       style="fill:#292f42;fill-opacity:1;stroke-width:869.948"
       id="path1"
       cx="137.99898"
       cy="95.370354"
       rx="16.072466"
       ry="15.717447" />
    <path
       style="fill:#313042;fill-opacity:1;stroke-width:950.222"
       d="m 51.777607,58.435812 c -0.576994,-0.372009 -1.488037,-0.842714 -2.801475,-1.12362 -1.313437,-0.280906 -3.029199,-0.372009 -4.646316,-0.311271 -1.617116,0.06074 -3.135491,0.273311 -4.33504,0.561812 -1.199548,0.288501 -2.080206,0.652911 -2.938113,1.434901 -0.857906,0.78199 -1.693012,1.981506 -2.194088,3.560667 -0.501076,1.579161 -0.668097,3.537864 -0.402368,5.329599 0.265728,1.791734 0.96418,3.416395 1.951156,4.699456 0.986975,1.283061 2.26241,2.224453 3.644173,2.854595 1.381764,0.630141 2.86977,0.948998 4.395782,1.017325 1.526013,0.06833 3.089938,-0.113878 4.327447,-0.493485 1.237509,-0.379607 2.148535,-0.95659 2.99885,-1.655064 0.850314,-0.698475 1.639869,-1.518397 2.323157,-2.353528 0.683288,-0.835131 1.26027,-1.685421 1.510806,-2.877384 0.250536,-1.191963 0.174617,-2.72552 -0.121477,-4.061728 -0.296094,-1.336208 -0.812342,-2.47499 -1.290644,-3.38604 -0.478302,-0.911049 -0.918629,-1.594316 -1.260272,-2.072617 -0.341644,-0.4783 -0.584585,-0.751609 -1.161578,-1.123618 z"
       id="path4"
       transform="matrix(0.94504989,0,0,0.89699345,93.921456,35.158663)" />
    <path
       style="fill:#1e2031;fill-opacity:1;stroke-width:950.222"
       d="m 45.294018,54.191872 c -1.260277,0.258129 -3.780827,0.774386 -5.83069,1.806917 -2.049862,1.032531 -3.628971,2.581273 -4.631123,3.993401 -1.002152,1.412129 -1.427297,2.687564 -1.601913,4.266724 -0.174616,1.57916 -0.0987,3.461943 0.303687,5.094242 0.402385,1.6323 1.131204,3.01402 1.898007,4.152833 0.766802,1.138813 1.571541,2.034655 2.444633,2.81664 0.873092,0.781985 1.814483,1.45007 2.968485,1.981516 1.154002,0.531445 2.52054,0.926222 3.68213,1.153983 1.16159,0.227761 2.118164,0.288496 3.11273,0.258127 0.994566,-0.03037 2.02706,-0.151839 3.07477,-0.455525 1.047711,-0.303685 2.110572,-0.789565 2.998846,-1.313421 0.888275,-0.523855 1.60191,-1.085654 1.958735,-1.366559 0.356825,-0.280905 -1.100844,0.02278 -1.829679,0.174617 0,0 -3.780827,0.865492 -3.780827,0.865492 -0.212577,-0.212577 -0.425154,-0.425154 -0.227755,-0.713654 0.197399,-0.288501 0.804748,-0.652911 1.495631,-1.176767 0.690882,-0.523857 1.465253,-1.207126 2.057435,-1.920783 0.592181,-0.713658 1.002142,-1.457661 1.009731,-1.579129 0.0076,-0.121467 -0.387189,0.379596 -1.032519,0.895859 -0.645331,0.516263 -1.541173,1.047694 -2.588884,1.427298 -1.047712,0.379603 -2.247227,0.607358 -3.461963,0.599764 -1.214737,-0.0076 -2.444621,-0.250534 -3.507513,-0.599772 -1.062892,-0.349238 -1.958733,-0.80475 -2.71035,-1.41212 -0.751616,-0.60737 -1.358965,-1.366557 -1.860043,-2.163727 -0.501078,-0.797171 -0.895855,-1.632276 -1.10084,-2.626843 -0.204985,-0.994567 -0.220168,-2.148532 -0.121469,-3.059581 0.0987,-0.911049 0.31127,-1.579135 0.652916,-2.2852 0.341646,-0.706066 0.812342,-1.450069 1.024918,-1.882816 0.212577,-0.432747 0.167025,-0.554216 -0.113885,-0.440332 -0.28091,0.113883 -0.797157,0.463109 -1.20713,1.009742 -0.409972,0.546634 -0.713646,1.290637 -0.97937,2.216876 -0.265723,0.926238 -0.493479,2.034649 -0.447924,3.355678 0.04556,1.321029 0.364414,2.854586 0.660506,3.917475 0.296092,1.06289 0.569399,1.655056 0.698463,2.065028 0.129064,0.409972 0.113881,0.637728 0.01518,0.751607 -0.0987,0.113879 -0.280903,0.113879 -0.622548,-0.242953 -0.341646,-0.356832 -0.84271,-1.070468 -1.374157,-2.209287 -0.531448,-1.13882 -1.093247,-2.702745 -1.358968,-4.152835 -0.265721,-1.45009 -0.235355,-2.78626 0.05315,-4.038955 0.288501,-1.252695 0.835116,-2.421843 1.556367,-3.431591 0.721251,-1.009748 1.617093,-1.860038 2.512961,-2.558509 0.895867,-0.698471 1.79171,-1.245087 2.528141,-1.639875 0.736432,-0.394787 1.313415,-0.637728 2.064085,-0.888267 0.75067,-0.250539 1.674982,-0.508664 2.169412,-0.652912 0.494431,-0.144248 0.558966,-0.174616 0.605467,-0.197391 0.0465,-0.02278 0.07497,-0.03796 0.0892,-0.04555 0.01423,-0.0076 0.01424,-0.0076 -1.24604,0.250534 z"
       id="path3"
       transform="matrix(0.94504989,0,0,0.89699345,93.921456,35.158663)" />
    <path
       style="fill:#313042;fill-opacity:1;stroke-width:950.222"
       d="m 52.924002,54.692945 c 0.630138,0.576994 1.890415,1.730981 3.074782,3.112746 1.184367,1.381764 2.292779,2.99124 2.983657,4.410961 0.690877,1.419721 0.964184,2.649605 1.002142,4.008592 0.03796,1.358988 -0.15943,2.846994 -0.554221,4.122465 -0.394791,1.275472 -0.986957,2.338333 -1.503218,3.014026 -0.516262,0.675693 -0.956592,0.964184 -1.183401,1.102268 -0.22681,0.138084 -0.24011,0.125735 -0.227769,0.09964 0.01234,-0.02609 0.0503,-0.06595 0.11863,-0.130961 0.06833,-0.06501 0.167022,-0.15516 0.385318,-0.550389 0.218297,-0.395229 0.556181,-1.095504 0.800285,-1.837546 0.244104,-0.742043 0.394415,-1.52581 0.485677,-2.368654 0.09126,-0.842843 0.123472,-1.744713 0.09663,-2.705661 -0.02684,-0.960948 -0.112734,-1.980919 -0.229644,-2.759025 C 58.05596,63.433302 57.90804,62.8971 57.54178,62.154484 c -0.36626,-0.742615 -0.950835,-1.6916 -1.584775,-2.625428 -0.633941,-0.933827 -1.31721,-1.852445 -1.905596,-2.615449 -0.588387,-0.763005 -1.081859,-1.370355 -1.359443,-1.768463 -0.277584,-0.398108 -0.339269,-0.586955 -0.37438,-0.711749 -0.03511,-0.124794 -0.04365,-0.185534 -0.04555,-0.222059 -0.0019,-0.03652 0.0029,-0.04889 0.0076,-0.06074 0.0047,-0.01185 0.0095,-0.02326 0.01186,-0.02895 0.0024,-0.0057 0.0024,-0.0057 0.63251,0.571299 z"
       id="path5"
       transform="matrix(0.94504989,0,0,0.89699345,93.921456,35.158663)" />
    <ellipse
       style="fill:#1e2031;fill-opacity:1;stroke-width:922.448"
       id="path2"
       cx="138.1974"
       cy="95.120674"
       rx="6.4788818"
       ry="6.2720065" />
  </g>
</svg>
