<?xml version="1.0" encoding="UTF-8" standalone="no"?>
<!-- Created with Inkscape (http://www.inkscape.org/) -->

<svg
   width="33.237717mm"
   height="32.536911mm"
   viewBox="0 0 33.237717 32.536911"
   version="1.1"
   id="svg1"
   xmlns="http://www.w3.org/2000/svg"
   xmlns:svg="http://www.w3.org/2000/svg">
  <defs
     id="defs1" />
  <g
     id="layer1"
     transform="translate(-89.429166,-104.51042)">
    <g
       id="layer2"
       style="display:inline"
       transform="translate(19.853109,75.389291)">
      <ellipse
         style="fill:#000000;fill-opacity:1;stroke-width:899.986"
         id="path1-2-7"
         cx="86.194916"
         cy="45.389584"
         rx="16.618858"
         ry="16.268456" />
      <ellipse
         style="fill:#292f42;fill-opacity:1;stroke-width:869.948"
         id="path1-6"
         cx="86.131287"
         cy="45.381062"
         rx="16.072466"
         ry="15.717447" />
      <path
         style="fill:#313042;fill-opacity:1;stroke-width:950.222"
         d="m 51.777607,58.435812 c -0.576994,-0.372009 -1.488037,-0.842714 -2.801475,-1.12362 -1.313437,-0.280906 -3.029199,-0.372009 -4.646316,-0.311271 -1.617116,0.06074 -3.135491,0.273311 -4.33504,0.561812 -1.199548,0.288501 -2.080206,0.652911 -2.938113,1.434901 -0.857906,0.78199 -1.693012,1.981506 -2.194088,3.560667 -0.501076,1.579161 -0.668097,3.537864 -0.402368,5.329599 0.265728,1.791734 0.96418,3.416395 1.951156,4.699456 0.986975,1.283061 2.26241,2.224453 3.644173,2.854595 1.381764,0.630141 2.86977,0.948998 4.395782,1.017325 1.526013,0.06833 3.089938,-0.113878 4.327447,-0.493485 1.237509,-0.379607 2.148535,-0.95659 2.99885,-1.655064 0.850314,-0.698475 1.639869,-1.518397 2.323157,-2.353528 0.683288,-0.835131 1.26027,-1.685421 1.510806,-2.877384 0.250536,-1.191963 0.174617,-2.72552 -0.121477,-4.061728 -0.296094,-1.336208 -0.812342,-2.47499 -1.290644,-3.38604 -0.478302,-0.911049 -0.918629,-1.594316 -1.260272,-2.072617 -0.341644,-0.4783 -0.584585,-0.751609 -1.161578,-1.123618 z"
         id="path4-1"
         transform="matrix(0.94504989,0,0,0.89699345,42.053762,-14.830626)" />
      <path
         style="fill:#1e2031;fill-opacity:1;stroke-width:950.222"
         d="m 45.294018,54.191872 c -1.260277,0.258129 -3.780827,0.774386 -5.83069,1.806917 -2.049862,1.032531 -3.628971,2.581273 -4.631123,3.993401 -1.002152,1.412129 -1.427297,2.687564 -1.601913,4.266724 -0.174616,1.57916 -0.0987,3.461943 0.303687,5.094242 0.402385,1.6323 1.131204,3.01402 1.898007,4.152833 0.766802,1.138813 1.571541,2.034655 2.444633,2.81664 0.873092,0.781985 1.814483,1.45007 2.968485,1.981516 1.154002,0.531445 2.52054,0.926222 3.68213,1.153983 1.16159,0.227761 2.118164,0.288496 3.11273,0.258127 0.994566,-0.03037 2.02706,-0.151839 3.07477,-0.455525 1.047711,-0.303685 2.110572,-0.789565 2.998846,-1.313421 0.888275,-0.523855 1.60191,-1.085654 1.958735,-1.366559 0.356825,-0.280905 -1.100844,0.02278 -1.829679,0.174617 0,0 -3.780827,0.865492 -3.780827,0.865492 -0.212577,-0.212577 -0.425154,-0.425154 -0.227755,-0.713654 0.197399,-0.288501 0.804748,-0.652911 1.495631,-1.176767 0.690882,-0.523857 1.465253,-1.207126 2.057435,-1.920783 0.592181,-0.713658 1.002142,-1.457661 1.009731,-1.579129 0.0076,-0.121467 -0.387189,0.379596 -1.032519,0.895859 -0.645331,0.516263 -1.541173,1.047694 -2.588884,1.427298 -1.047712,0.379603 -2.247227,0.607358 -3.461963,0.599764 -1.214737,-0.0076 -2.444621,-0.250534 -3.507513,-0.599772 -1.062892,-0.349238 -1.958733,-0.80475 -2.71035,-1.41212 -0.751616,-0.60737 -1.358965,-1.366557 -1.860043,-2.163727 -0.501078,-0.797171 -0.895855,-1.632276 -1.10084,-2.626843 -0.204985,-0.994567 -0.220168,-2.148532 -0.121469,-3.059581 0.0987,-0.911049 0.31127,-1.579135 0.652916,-2.2852 0.341646,-0.706066 0.812342,-1.450069 1.024918,-1.882816 0.212577,-0.432747 0.167025,-0.554216 -0.113885,-0.440332 -0.28091,0.113883 -0.797157,0.463109 -1.20713,1.009742 -0.409972,0.546634 -0.713646,1.290637 -0.97937,2.216876 -0.265723,0.926238 -0.493479,2.034649 -0.447924,3.355678 0.04556,1.321029 0.364414,2.854586 0.660506,3.917475 0.296092,1.06289 0.569399,1.655056 0.698463,2.065028 0.129064,0.409972 0.113881,0.637728 0.01518,0.751607 -0.0987,0.113879 -0.280903,0.113879 -0.622548,-0.242953 -0.341646,-0.356832 -0.84271,-1.070468 -1.374157,-2.209287 -0.531448,-1.13882 -1.093247,-2.702745 -1.358968,-4.152835 -0.265721,-1.45009 -0.235355,-2.78626 0.05315,-4.038955 0.288501,-1.252695 0.835116,-2.421843 1.556367,-3.431591 0.721251,-1.009748 1.617093,-1.860038 2.512961,-2.558509 0.895867,-0.698471 1.79171,-1.245087 2.528141,-1.639875 0.736432,-0.394787 1.313415,-0.637728 2.064085,-0.888267 0.75067,-0.250539 1.674982,-0.508664 2.169412,-0.652912 0.494431,-0.144248 0.558966,-0.174616 0.605467,-0.197391 0.0465,-0.02278 0.07497,-0.03796 0.0892,-0.04555 0.01423,-0.0076 0.01424,-0.0076 -1.24604,0.250534 z"
         id="path3-8"
         transform="matrix(0.94504989,0,0,0.89699345,42.053762,-14.830626)" />
      <path
         style="fill:#313042;fill-opacity:1;stroke-width:950.222"
         d="m 52.924002,54.692945 c 0.630138,0.576994 1.890415,1.730981 3.074782,3.112746 1.184367,1.381764 2.292779,2.99124 2.983657,4.410961 0.690877,1.419721 0.964184,2.649605 1.002142,4.008592 0.03796,1.358988 -0.15943,2.846994 -0.554221,4.122465 -0.394791,1.275472 -0.986957,2.338333 -1.503218,3.014026 -0.516262,0.675693 -0.956592,0.964184 -1.183401,1.102268 -0.22681,0.138084 -0.24011,0.125735 -0.227769,0.09964 0.01234,-0.02609 0.0503,-0.06595 0.11863,-0.130961 0.06833,-0.06501 0.167022,-0.15516 0.385318,-0.550389 0.218297,-0.395229 0.556181,-1.095504 0.800285,-1.837546 0.244104,-0.742043 0.394415,-1.52581 0.485677,-2.368654 0.09126,-0.842843 0.123472,-1.744713 0.09663,-2.705661 -0.02684,-0.960948 -0.112734,-1.980919 -0.229644,-2.759025 C 58.05596,63.433302 57.90804,62.8971 57.54178,62.154484 c -0.36626,-0.742615 -0.950835,-1.6916 -1.584775,-2.625428 -0.633941,-0.933827 -1.31721,-1.852445 -1.905596,-2.615449 -0.588387,-0.763005 -1.081859,-1.370355 -1.359443,-1.768463 -0.277584,-0.398108 -0.339269,-0.586955 -0.37438,-0.711749 -0.03511,-0.124794 -0.04365,-0.185534 -0.04555,-0.222059 -0.0019,-0.03652 0.0029,-0.04889 0.0076,-0.06074 0.0047,-0.01185 0.0095,-0.02326 0.01186,-0.02895 0.0024,-0.0057 0.0024,-0.0057 0.63251,0.571299 z"
         id="path5-9"
         transform="matrix(0.94504989,0,0,0.89699345,42.053762,-14.830626)" />
      <ellipse
         style="fill:#1e2031;fill-opacity:1;stroke-width:922.448"
         id="path2-2"
         cx="86.32972"
         cy="45.131382"
         rx="6.4788818"
         ry="6.2720065" />
      <path
         style="opacity:1;fill:#ffffff;fill-opacity:1;stroke-width:950.222"
         d="m 58.42822,57.15276 c 0.394785,-0.01518 1.184356,-0.04555 1.973926,-0.07592 0,0 2.209279,1.321012 2.209279,1.321012 0,0 3.256979,0.888267 3.256979,0.888267 0,0 0.614955,1.434894 0.614955,1.434894 0,0 5.511808,3.53029 5.511808,3.53029 0,0 -0.227759,5.192945 -0.227759,5.192945 0,0 1.070475,0.797163 1.070475,0.797163 0,0 0.159433,3.803605 0.159433,3.803605 0,0 0.523848,1.412116 0.523848,1.412116 0,0 -0.204983,5.010737 -0.204983,5.010737 0,0 -0.421357,1.12172 -0.421357,1.12172 0,0 -0.483992,0.04555 -0.483992,0.04555 -0.415664,0.01518 -0.831328,0.03037 -1.391246,0.01044 -0.559918,-0.01993 -1.264064,-0.07497 -1.841063,-0.1452 -0.577,-0.07023 -1.026818,-0.155636 -1.456719,-0.248639 -0.429902,-0.093 -0.839864,-0.193594 -1.252685,-0.318864 -0.412821,-0.12527 -0.828477,-0.27521 -1.444387,-0.557068 C 64.408821,80.093949 63.592696,79.680193 62.961604,79.318619 62.330511,78.957045 61.884491,78.647677 61.418525,78.281357 60.95256,77.915037 60.466678,77.49179 60.033929,77.074225 59.60118,76.65666 59.221587,76.2448 58.810664,75.733281 58.399741,75.221762 57.957516,74.610618 57.605433,74.05165 57.25335,73.492681 56.991431,72.985924 56.730452,72.410822 56.469473,71.83572 56.209451,71.192309 56.015853,70.602024 55.822255,70.011739 55.695092,69.474613 55.61063,69.079825 c -0.08446,-0.394787 -0.126217,-0.647217 -0.174617,-1.05909 -0.0484,-0.411873 -0.103441,-0.983162 -0.12337,-1.577244 -0.01993,-0.594082 -0.0047,-1.210921 0.0503,-1.845811 0.05504,-0.634891 0.149941,-1.287792 0.34449,-2.06883 0.194548,-0.781038 0.488733,-1.690165 0.830378,-2.516754 0.341644,-0.826589 0.730728,-1.570592 0.978419,-2.020422 0.247691,-0.44983 0.353977,-0.605463 0.415272,-0.693095 0.0613,-0.08763 0.07759,-0.107255 0.0871,-0.117713 0.0095,-0.01046 0.01213,-0.01171 0.01346,-0.01234 0.0013,-6.33e-4 0.0014,-5.85e-4 0.396161,-0.01577 z"
         id="path6"
         transform="translate(14.780005,-20.579754)" />
      <path
         style="display:inline;opacity:1;fill:#a69fa5;fill-opacity:1;stroke-width:950.222"
         d="m 71.043381,67.694747 c -0.01378,0.440972 -0.04134,1.322918 -0.05373,1.768742 -0.01239,0.445824 -0.0096,0.4554 -0.0069,0.463685 0.0028,0.0083 0.0055,0.01514 0.177793,0.170175 0.172265,0.155033 0.514011,0.458196 0.685825,0.610449 0.171813,0.152253 0.173667,0.153577 0.175554,0.155196 0.0019,0.0016 0.0039,0.0036 0.02262,0.837228 0.01873,0.833608 0.0543,2.498858 0.07305,3.338323 0.01875,0.839465 0.02068,0.853105 0.104346,0.928325 0.08366,0.07522 0.249049,0.212006 0.334502,0.286949 0.08545,0.07494 0.09097,0.08804 0.0833,0.687128 -0.0077,0.599088 -0.02851,1.784138 -0.0974,2.481913 -0.06889,0.697775 -0.185816,0.908246 -0.263771,1.017383 -0.07796,0.109136 -0.116923,0.116931 -0.189035,0.04482 -0.07211,-0.07211 -0.177346,-0.224114 -0.255301,-0.951044 -0.07795,-0.726931 -0.128622,-2.028731 -0.154173,-2.682297 -0.02555,-0.653566 -0.02599,-0.658917 -0.0262,-0.663612 -2.16e-4,-0.0047 -2.16e-4,-0.0089 -0.204342,-0.09777 -0.204126,-0.08887 -0.612362,-0.262502 -0.943266,-0.492638 -0.330904,-0.230135 -0.584459,-0.516762 -0.813215,-0.883324 -0.228755,-0.366561 -0.432702,-0.813038 -0.570506,-1.424895 -0.137805,-0.611857 -0.209461,-1.389054 -0.206704,-1.978858 0.0028,-0.589804 0.07993,-0.992185 0.270098,-1.466235 0.190172,-0.474051 0.493334,-1.019742 0.749652,-1.422132 0.256317,-0.40239 0.465773,-0.661455 0.635416,-0.835463 0.169643,-0.174008 0.299468,-0.262952 0.371306,-0.309808 0.07184,-0.04686 0.08565,-0.05161 0.09481,-0.05124 0.0092,3.74e-4 0.01362,0.0059 0.01622,0.01139 0.0026,0.0055 0.0033,0.01103 0.0036,0.01379 3.51e-4,0.0028 1.42e-4,0.0028 -0.01364,0.443815 z"
         id="path7"
         transform="translate(14.780005,-20.579754)" />
      <path
         style="display:inline;opacity:1;fill:#a69fa5;fill-opacity:1;stroke-width:950.222"
         d="m 68.496765,64.676844 c 0.383094,0.250802 1.149285,0.752409 1.576479,1.016993 0.427194,0.264584 0.515384,0.292142 0.611849,0.275604 0.09646,-0.01654 0.201192,-0.07717 0.248045,-0.173634 0.04685,-0.09646 0.03583,-0.228752 -0.08544,-0.418924 -0.121269,-0.190172 -0.352775,-0.438214 -0.777217,-0.8599 C 69.646039,64.095297 69.02869,63.499997 68.538105,63.075559 68.04752,62.651121 67.683726,62.397567 67.297871,62.207396 66.912016,62.017226 66.504126,61.890449 66.110003,61.614837 65.71588,61.339225 65.335549,60.914798 64.999305,60.608871 64.66306,60.302944 64.370923,60.115536 63.76182,59.837168 63.152718,59.558801 62.226695,59.189494 61.579013,58.883567 60.931331,58.57764 60.562025,58.33511 60.18995,58.208331 c -0.372075,-0.12678 -0.746891,-0.137803 -0.953599,-0.121264 -0.206708,0.01654 -0.245288,0.06063 -0.220483,0.173633 0.02481,0.113003 0.112997,0.294899 0.319706,0.548461 0.206709,0.253562 0.531919,0.578772 0.967385,0.961871 0.435465,0.3831 0.981158,0.824063 1.460719,1.12999 0.479561,0.305926 0.892965,0.4768 1.107939,0.614605 0.214974,0.137804 0.23151,0.242533 0.264584,0.427193 0.03307,0.184659 0.08268,0.449238 0.187414,0.73036 0.104732,0.281122 0.264581,0.578773 0.501607,0.837846 0.237025,0.259074 0.551213,0.479556 0.824067,0.589799 0.272854,0.110243 0.504359,0.110243 0.824068,0.08544 0.31971,-0.02481 0.727599,-0.07441 1.003209,-0.137804 0.275609,-0.06339 0.418921,-0.140559 0.51263,-0.184657 0.09371,-0.0441 0.137797,-0.05512 0.316947,0.0441 0.179151,0.09922 0.493338,0.308679 0.650434,0.41341 0.157097,0.104731 0.157094,0.104727 0.540188,0.35553 z"
         id="path8"
         transform="translate(14.780005,-20.579754)" />
    </g>
  </g>
</svg>
