<?xml version="1.0" encoding="UTF-8" standalone="no"?>
<!-- Created with Inkscape (http://www.inkscape.org/) -->

<svg
   width="33.237717mm"
   height="32.536911mm"
   viewBox="0 0 33.237717 32.536911"
   version="1.1"
   id="svg1"
   xmlns="http://www.w3.org/2000/svg"
   xmlns:svg="http://www.w3.org/2000/svg">
  <defs
     id="defs1" />
  <g
     id="layer1"
     transform="translate(-86.518747,-105.56875)">
    <g
       id="layer2"
       style="display:inline"
       transform="translate(19.853109,75.389291)">
      <g
         id="layer3"
         transform="translate(-50.354618,8.7942196)">
        <ellipse
           style="display:inline;fill:#000000;fill-opacity:1;stroke-width:899.986"
           id="path1-2-7-6"
           cx="133.63911"
           cy="37.653698"
           rx="16.618858"
           ry="16.268456" />
        <ellipse
           style="display:inline;fill:#292f42;fill-opacity:1;stroke-width:869.948"
           id="path1-6-0"
           cx="133.57549"
           cy="37.645176"
           rx="16.072466"
           ry="15.717447" />
        <path
           style="display:inline;fill:#313042;fill-opacity:1;stroke-width:950.222"
           d="m 51.777607,58.435812 c -0.576994,-0.372009 -1.488037,-0.842714 -2.801475,-1.12362 -1.313437,-0.280906 -3.029199,-0.372009 -4.646316,-0.311271 -1.617116,0.06074 -3.135491,0.273311 -4.33504,0.561812 -1.199548,0.288501 -2.080206,0.652911 -2.938113,1.434901 -0.857906,0.78199 -1.693012,1.981506 -2.194088,3.560667 -0.501076,1.579161 -0.668097,3.537864 -0.402368,5.329599 0.265728,1.791734 0.96418,3.416395 1.951156,4.699456 0.986975,1.283061 2.26241,2.224453 3.644173,2.854595 1.381764,0.630141 2.86977,0.948998 4.395782,1.017325 1.526013,0.06833 3.089938,-0.113878 4.327447,-0.493485 1.237509,-0.379607 2.148535,-0.95659 2.99885,-1.655064 0.850314,-0.698475 1.639869,-1.518397 2.323157,-2.353528 0.683288,-0.835131 1.26027,-1.685421 1.510806,-2.877384 0.250536,-1.191963 0.174617,-2.72552 -0.121477,-4.061728 -0.296094,-1.336208 -0.812342,-2.47499 -1.290644,-3.38604 -0.478302,-0.911049 -0.918629,-1.594316 -1.260272,-2.072617 -0.341644,-0.4783 -0.584585,-0.751609 -1.161578,-1.123618 z"
           id="path4-1-2"
           transform="matrix(0.94504989,0,0,0.89699345,89.49796,-22.566512)" />
        <path
           style="display:inline;fill:#1e2031;fill-opacity:1;stroke-width:950.222"
           d="m 45.294018,54.191872 c -1.260277,0.258129 -3.780827,0.774386 -5.83069,1.806917 -2.049862,1.032531 -3.628971,2.581273 -4.631123,3.993401 -1.002152,1.412129 -1.427297,2.687564 -1.601913,4.266724 -0.174616,1.57916 -0.0987,3.461943 0.303687,5.094242 0.402385,1.6323 1.131204,3.01402 1.898007,4.152833 0.766802,1.138813 1.571541,2.034655 2.444633,2.81664 0.873092,0.781985 1.814483,1.45007 2.968485,1.981516 1.154002,0.531445 2.52054,0.926222 3.68213,1.153983 1.16159,0.227761 2.118164,0.288496 3.11273,0.258127 0.994566,-0.03037 2.02706,-0.151839 3.07477,-0.455525 1.047711,-0.303685 2.110572,-0.789565 2.998846,-1.313421 0.888275,-0.523855 1.60191,-1.085654 1.958735,-1.366559 0.356825,-0.280905 -1.100844,0.02278 -1.829679,0.174617 0,0 -3.780827,0.865492 -3.780827,0.865492 -0.212577,-0.212577 -0.425154,-0.425154 -0.227755,-0.713654 0.197399,-0.288501 0.804748,-0.652911 1.495631,-1.176767 0.690882,-0.523857 1.465253,-1.207126 2.057435,-1.920783 0.592181,-0.713658 1.002142,-1.457661 1.009731,-1.579129 0.0076,-0.121467 -0.387189,0.379596 -1.032519,0.895859 -0.645331,0.516263 -1.541173,1.047694 -2.588884,1.427298 -1.047712,0.379603 -2.247227,0.607358 -3.461963,0.599764 -1.214737,-0.0076 -2.444621,-0.250534 -3.507513,-0.599772 -1.062892,-0.349238 -1.958733,-0.80475 -2.71035,-1.41212 -0.751616,-0.60737 -1.358965,-1.366557 -1.860043,-2.163727 -0.501078,-0.797171 -0.895855,-1.632276 -1.10084,-2.626843 -0.204985,-0.994567 -0.220168,-2.148532 -0.121469,-3.059581 0.0987,-0.911049 0.31127,-1.579135 0.652916,-2.2852 0.341646,-0.706066 0.812342,-1.450069 1.024918,-1.882816 0.212577,-0.432747 0.167025,-0.554216 -0.113885,-0.440332 -0.28091,0.113883 -0.797157,0.463109 -1.20713,1.009742 -0.409972,0.546634 -0.713646,1.290637 -0.97937,2.216876 -0.265723,0.926238 -0.493479,2.034649 -0.447924,3.355678 0.04556,1.321029 0.364414,2.854586 0.660506,3.917475 0.296092,1.06289 0.569399,1.655056 0.698463,2.065028 0.129064,0.409972 0.113881,0.637728 0.01518,0.751607 -0.0987,0.113879 -0.280903,0.113879 -0.622548,-0.242953 -0.341646,-0.356832 -0.84271,-1.070468 -1.374157,-2.209287 -0.531448,-1.13882 -1.093247,-2.702745 -1.358968,-4.152835 -0.265721,-1.45009 -0.235355,-2.78626 0.05315,-4.038955 0.288501,-1.252695 0.835116,-2.421843 1.556367,-3.431591 0.721251,-1.009748 1.617093,-1.860038 2.512961,-2.558509 0.895867,-0.698471 1.79171,-1.245087 2.528141,-1.639875 0.736432,-0.394787 1.313415,-0.637728 2.064085,-0.888267 0.75067,-0.250539 1.674982,-0.508664 2.169412,-0.652912 0.494431,-0.144248 0.558966,-0.174616 0.605467,-0.197391 0.0465,-0.02278 0.07497,-0.03796 0.0892,-0.04555 0.01423,-0.0076 0.01424,-0.0076 -1.24604,0.250534 z"
           id="path3-8-4"
           transform="matrix(0.94504989,0,0,0.89699345,89.49796,-22.566512)" />
        <path
           style="display:inline;fill:#313042;fill-opacity:1;stroke-width:950.222"
           d="m 52.924002,54.692945 c 0.630138,0.576994 1.890415,1.730981 3.074782,3.112746 1.184367,1.381764 2.292779,2.99124 2.983657,4.410961 0.690877,1.419721 0.964184,2.649605 1.002142,4.008592 0.03796,1.358988 -0.15943,2.846994 -0.554221,4.122465 -0.394791,1.275472 -0.986957,2.338333 -1.503218,3.014026 -0.516262,0.675693 -0.956592,0.964184 -1.183401,1.102268 -0.22681,0.138084 -0.24011,0.125735 -0.227769,0.09964 0.01234,-0.02609 0.0503,-0.06595 0.11863,-0.130961 0.06833,-0.06501 0.167022,-0.15516 0.385318,-0.550389 0.218297,-0.395229 0.556181,-1.095504 0.800285,-1.837546 0.244104,-0.742043 0.394415,-1.52581 0.485677,-2.368654 0.09126,-0.842843 0.123472,-1.744713 0.09663,-2.705661 -0.02684,-0.960948 -0.112734,-1.980919 -0.229644,-2.759025 C 58.05596,63.433302 57.90804,62.8971 57.54178,62.154484 c -0.36626,-0.742615 -0.950835,-1.6916 -1.584775,-2.625428 -0.633941,-0.933827 -1.31721,-1.852445 -1.905596,-2.615449 -0.588387,-0.763005 -1.081859,-1.370355 -1.359443,-1.768463 -0.277584,-0.398108 -0.339269,-0.586955 -0.37438,-0.711749 -0.03511,-0.124794 -0.04365,-0.185534 -0.04555,-0.222059 -0.0019,-0.03652 0.0029,-0.04889 0.0076,-0.06074 0.0047,-0.01185 0.0095,-0.02326 0.01186,-0.02895 0.0024,-0.0057 0.0024,-0.0057 0.63251,0.571299 z"
           id="path5-9-8"
           transform="matrix(0.94504989,0,0,0.89699345,89.49796,-22.566512)" />
        <ellipse
           style="display:inline;fill:#1e2031;fill-opacity:1;stroke-width:922.448"
           id="path2-2-6"
           cx="133.77391"
           cy="37.395496"
           rx="6.4788818"
           ry="6.2720065" />
        <path
           style="display:inline;fill:#ffffff;fill-opacity:1;stroke-width:950.222"
           d="m 58.42822,57.15276 c 0.394785,-0.01518 1.184356,-0.04555 1.973926,-0.07592 0,0 2.209279,1.321012 2.209279,1.321012 0,0 3.256979,0.888267 3.256979,0.888267 0,0 0.614955,1.434894 0.614955,1.434894 0,0 5.511808,3.53029 5.511808,3.53029 0,0 -0.227759,5.192945 -0.227759,5.192945 0,0 1.070475,0.797163 1.070475,0.797163 0,0 0.159433,3.803605 0.159433,3.803605 0,0 0.523848,1.412116 0.523848,1.412116 0,0 -0.204983,5.010737 -0.204983,5.010737 0,0 -0.421357,1.12172 -0.421357,1.12172 0,0 -0.483992,0.04555 -0.483992,0.04555 -0.415664,0.01518 -0.831328,0.03037 -1.391246,0.01044 -0.559918,-0.01993 -1.264064,-0.07497 -1.841063,-0.1452 -0.577,-0.07023 -1.026818,-0.155636 -1.456719,-0.248639 -0.429902,-0.093 -0.839864,-0.193594 -1.252685,-0.318864 -0.412821,-0.12527 -0.828477,-0.27521 -1.444387,-0.557068 C 64.408821,80.093949 63.592696,79.680193 62.961604,79.318619 62.330511,78.957045 61.884491,78.647677 61.418525,78.281357 60.95256,77.915037 60.466678,77.49179 60.033929,77.074225 59.60118,76.65666 59.221587,76.2448 58.810664,75.733281 58.399741,75.221762 57.957516,74.610618 57.605433,74.05165 57.25335,73.492681 56.991431,72.985924 56.730452,72.410822 56.469473,71.83572 56.209451,71.192309 56.015853,70.602024 55.822255,70.011739 55.695092,69.474613 55.61063,69.079825 c -0.08446,-0.394787 -0.126217,-0.647217 -0.174617,-1.05909 -0.0484,-0.411873 -0.103441,-0.983162 -0.12337,-1.577244 -0.01993,-0.594082 -0.0047,-1.210921 0.0503,-1.845811 0.05504,-0.634891 0.149941,-1.287792 0.34449,-2.06883 0.194548,-0.781038 0.488733,-1.690165 0.830378,-2.516754 0.341644,-0.826589 0.730728,-1.570592 0.978419,-2.020422 0.247691,-0.44983 0.353977,-0.605463 0.415272,-0.693095 0.0613,-0.08763 0.07759,-0.107255 0.0871,-0.117713 0.0095,-0.01046 0.01213,-0.01171 0.01346,-0.01234 0.0013,-6.33e-4 0.0014,-5.85e-4 0.396161,-0.01577 z"
           id="path6-5"
           transform="translate(62.224211,-28.31564)" />
        <path
           style="display:inline;opacity:1;fill:#ffffff;fill-opacity:1;stroke-width:950.222"
           d="m 58.42822,57.15276 c 0.394785,-0.01518 1.184356,-0.04555 1.973926,-0.07592 0,0 2.209279,1.321012 2.209279,1.321012 0,0 3.256979,0.888267 3.256979,0.888267 0,0 0.614955,1.434894 0.614955,1.434894 0,0 5.511808,3.53029 5.511808,3.53029 0,0 -0.227759,5.192945 -0.227759,5.192945 0,0 1.070475,0.797163 1.070475,0.797163 0,0 0.159433,3.803605 0.159433,3.803605 0,0 0.523848,1.412116 0.523848,1.412116 0,0 -0.204983,5.010737 -0.204983,5.010737 0,0 -0.421357,1.12172 -0.421357,1.12172 0,0 -0.483992,0.04555 -0.483992,0.04555 -0.415664,0.01518 -0.831328,0.03037 -1.391246,0.01044 -0.559918,-0.01993 -1.264064,-0.07497 -1.841063,-0.1452 -0.577,-0.07023 -1.026818,-0.155636 -1.456719,-0.248639 -0.429902,-0.093 -0.839864,-0.193594 -1.252685,-0.318864 -0.412821,-0.12527 -0.828477,-0.27521 -1.444387,-0.557068 C 64.408821,80.093949 63.592696,79.680193 62.961604,79.318619 62.330511,78.957045 61.884491,78.647677 61.418525,78.281357 60.95256,77.915037 60.466678,77.49179 60.033929,77.074225 59.60118,76.65666 59.221587,76.2448 58.810664,75.733281 58.399741,75.221762 57.957516,74.610618 57.605433,74.05165 57.25335,73.492681 56.991431,72.985924 56.730452,72.410822 56.469473,71.83572 56.209451,71.192309 56.015853,70.602024 55.822255,70.011739 55.695092,69.474613 55.61063,69.079825 c -0.08446,-0.394787 -0.126217,-0.647217 -0.174617,-1.05909 -0.0484,-0.411873 -0.103441,-0.983162 -0.12337,-1.577244 -0.01993,-0.594082 -0.0047,-1.210921 0.0503,-1.845811 0.05504,-0.634891 0.149941,-1.287792 0.34449,-2.06883 0.194548,-0.781038 0.488733,-1.690165 0.830378,-2.516754 0.341644,-0.826589 0.730728,-1.570592 0.978419,-2.020422 0.247691,-0.44983 0.353977,-0.605463 0.415272,-0.693095 0.0613,-0.08763 0.07759,-0.107255 0.0871,-0.117713 0.0095,-0.01046 0.01213,-0.01171 0.01346,-0.01234 0.0013,-6.33e-4 0.0014,-5.85e-4 0.396161,-0.01577 z"
           id="path6-5-8"
           transform="matrix(-1,0,0,1,205.05193,-28.267213)" />
        <path
           id="path9-0"
           style="opacity:1;fill:#a69fa5;fill-opacity:1;stroke-width:950.222"
           d="m 121.78226,31.327353 c -0.0859,0.0077 -0.10786,0.04644 -0.0413,0.125057 0.26605,0.314464 1.94801,1.270556 2.79208,1.750798 0.8443,0.480246 0.85018,0.48451 0.85318,0.49351 0.003,0.009 0.003,0.0231 -0.003,0.150895 -0.006,0.127799 -0.0173,0.369222 -0.0253,0.714168 -0.008,0.344945 -0.0117,0.793231 0.078,1.159619 0.0896,0.366387 0.27283,0.650837 0.62167,0.884701 0.34884,0.233864 0.86321,0.416953 1.35237,0.475423 0.48916,0.05847 0.95273,-0.0077 1.3503,-0.125574 0.39757,-0.117907 0.72918,-0.28759 0.89969,-0.36897 0.17055,-0.08138 0.18009,-0.07427 0.19379,-0.06253 0.0137,0.01174 0.0314,0.02807 0.41703,0.388607 0.38562,0.360535 1.13929,1.065049 1.51412,1.420585 0.37484,0.355536 0.37078,0.362096 0.21445,0.613399 -0.15633,0.251303 -0.46526,0.74741 -0.73535,1.166337 -0.2701,0.418926 -0.50143,0.760501 -0.68885,1.168404 -0.18741,0.407903 -0.33077,0.882284 -0.39687,1.400432 -0.0662,0.518147 -0.055,1.080205 0.076,1.639693 0.13092,0.559489 0.38171,1.116375 0.76481,1.601452 0.3831,0.485076 0.89848,0.898131 1.31362,1.127063 0.41514,0.228933 0.72983,0.273369 0.88728,0.294039 0.0759,0.01 0.11507,0.01452 0.13539,0.01447 0.0149,0.0028 0.0529,-9.71e-4 0.1478,-0.01344 0.15744,-0.02067 0.47214,-0.06511 0.88728,-0.294039 0.41514,-0.228932 0.93052,-0.642504 1.31362,-1.12758 0.3831,-0.485076 0.63389,-1.041447 0.76481,-1.600936 0.13092,-0.559488 0.1421,-1.122062 0.076,-1.64021 -0.0661,-0.518147 -0.20946,-0.992011 -0.39687,-1.399914 -0.18742,-0.407903 -0.41875,-0.749478 -0.68885,-1.168404 -0.2701,-0.418927 -0.57902,-0.915035 -0.73535,-1.166337 -0.15634,-0.251303 -0.16038,-0.257864 0.21445,-0.6134 0.37484,-0.355536 1.1285,-1.060051 1.51412,-1.420585 0.38563,-0.360534 0.40328,-0.377384 0.41703,-0.389123 0.0137,-0.01174 0.0233,-0.01833 0.19379,0.06305 0.1705,0.08138 0.5016,0.251063 0.89917,0.36897 0.39757,0.117906 0.86166,0.18404 1.35082,0.125573 0.48916,-0.05847 1.00353,-0.241559 1.35237,-0.475423 0.34884,-0.233864 0.53202,-0.518313 0.62167,-0.8847 0.0896,-0.366388 0.0858,-0.814674 0.078,-1.159619 -0.008,-0.344946 -0.0193,-0.586886 -0.0253,-0.714685 -0.006,-0.1278 -0.006,-0.141394 -0.004,-0.150379 0.003,-0.009 0.009,-0.01327 0.85318,-0.49351 0.84407,-0.480242 2.52603,-1.43685 2.79208,-1.751314 0.26605,-0.314464 -0.88389,0.01316 -1.87586,0.383439 -0.99196,0.370284 -1.82593,0.783585 -2.84323,1.348755 -1.01731,0.56517 -2.21804,1.282134 -3.09697,1.870687 -0.87893,0.588552 -1.43599,1.048486 -1.91151,1.39733 -0.47553,0.348845 -0.86948,0.586373 -1.16376,0.728638 -0.29427,0.142266 -0.4889,0.18899 -0.59634,0.216524 -0.0891,0.02284 -0.11817,0.03286 -0.13178,0.03876 -0.0128,-0.0058 -0.0397,-0.01527 -0.13332,-0.03927 -0.10745,-0.02753 -0.3026,-0.07426 -0.59687,-0.216525 -0.29428,-0.142266 -0.68771,-0.38031 -1.16323,-0.729154 -0.47552,-0.348844 -1.0331,-0.808778 -1.91203,-1.397331 -0.87893,-0.588552 -2.07914,-1.305517 -3.09645,-1.870687 -1.0173,-0.56517 -1.85128,-0.978472 -2.84324,-1.348755 -0.74398,-0.27771 -1.57687,-0.531204 -1.83451,-0.507979 z" />
      </g>
    </g>
  </g>
</svg>
