<?xml version="1.0" encoding="UTF-8" standalone="no"?>
<!-- Created with Inkscape (http://www.inkscape.org/) -->

<svg
   width="40.228455mm"
   height="54.526882mm"
   viewBox="0 0 40.228454 54.526883"
   version="1.1"
   id="svg1"
   xml:space="preserve"
   xmlns="http://www.w3.org/2000/svg"
   xmlns:svg="http://www.w3.org/2000/svg"><defs
     id="defs1" /><g
     id="layer1"
     transform="translate(-45.648163,-182.00443)"><path
       style="fill:#000000;fill-opacity:1;stroke-width:950.222"
       d="m 26.192483,164.13957 c -1.533589,-0.18221 -3.294936,-1.21472 -4.980382,-2.44465 -1.685447,-1.22992 -3.294923,-2.65719 -4.858895,-4.40338 -1.563972,-1.74618 -3.082347,-3.81117 -4.418554,-6.11917 -1.336207,-2.308 -2.4901749,-4.85888 -3.3556706,-7.25798 -0.8654957,-2.3991 -1.4424776,-4.64629 -1.7309749,-7.01503 -0.2884973,-2.36874 -0.2884973,-4.85887 -0.045548,-7.31871 0.2429497,-2.45984 0.7288293,-4.88924 1.6398853,-7.1365 0.911056,-2.24726 2.2472267,-4.31225 3.5682517,-5.8003 1.321024,-1.48804 2.626829,-2.39907 4.03896,-3.2342 1.412131,-0.83513 2.930502,-1.59432 4.570398,-2.11058 1.639896,-0.51626 3.40121,-0.78957 5.010735,-0.8503 1.609525,-0.0607 3.067165,0.0911 4.798166,0.62256 1.731001,0.53145 3.735256,1.44247 5.299225,2.44463 1.563969,1.00216 2.687566,2.09539 3.674538,3.27976 0.986971,1.18437 1.837258,2.4598 2.642019,3.75046 0.804761,1.29065 1.563951,2.59646 2.21687,4.1908 0.652919,1.59434 1.199535,3.47713 1.503217,5.19294 0.303681,1.71582 0.364416,3.26456 0.334047,5.16259 -0.03037,1.89803 -0.151839,4.14522 -0.577,6.30138 -0.42516,2.15615 -1.15398,4.22114 -1.989112,6.02806 -0.835131,1.80691 -1.776523,3.35565 -3.112737,5.05629 -1.336215,1.70063 -3.067163,3.55305 -4.813346,5.3296 -1.746183,1.77655 -3.507497,3.47713 -5.041099,4.66149 -1.533601,1.18436 -2.839404,1.85245 -4.372994,1.67024 z"
       id="path1-8"
       transform="matrix(1.0189526,0,0,1.0147732,38.897017,69.936731)" /><path
       style="fill:#222838;fill-opacity:1;stroke-width:950.222"
       d="m 26.192483,164.13957 c -1.533589,-0.18221 -3.294936,-1.21472 -4.980382,-2.44465 -1.685447,-1.22992 -3.294923,-2.65719 -4.858895,-4.40338 -1.563972,-1.74618 -3.082347,-3.81117 -4.418554,-6.11917 -1.336207,-2.308 -2.4901749,-4.85888 -3.3556706,-7.25798 -0.8654957,-2.3991 -1.4424776,-4.64629 -1.7309749,-7.01503 -0.2884973,-2.36874 -0.2884973,-4.85887 -0.045548,-7.31871 0.2429497,-2.45984 0.7288293,-4.88924 1.6398853,-7.1365 0.911056,-2.24726 2.2472267,-4.31225 3.5682517,-5.8003 1.321024,-1.48804 2.626829,-2.39907 4.03896,-3.2342 1.412131,-0.83513 2.930502,-1.59432 4.570398,-2.11058 1.639896,-0.51626 3.40121,-0.78957 5.010735,-0.8503 1.609525,-0.0607 3.067165,0.0911 4.798166,0.62256 1.731001,0.53145 3.735256,1.44247 5.299225,2.44463 1.563969,1.00216 2.687566,2.09539 3.674538,3.27976 0.986971,1.18437 1.837258,2.4598 2.642019,3.75046 0.804761,1.29065 1.563951,2.59646 2.21687,4.1908 0.652919,1.59434 1.199535,3.47713 1.503217,5.19294 0.303681,1.71582 0.364416,3.26456 0.334047,5.16259 -0.03037,1.89803 -0.151839,4.14522 -0.577,6.30138 -0.42516,2.15615 -1.15398,4.22114 -1.989112,6.02806 -0.835131,1.80691 -1.776523,3.35565 -3.112737,5.05629 -1.336215,1.70063 -3.067163,3.55305 -4.813346,5.3296 -1.746183,1.77655 -3.507497,3.47713 -5.041099,4.66149 -1.533601,1.18436 -2.839404,1.85245 -4.372994,1.67024 z"
       id="path1"
       transform="translate(39.334191,71.931879)" /><path
       style="fill:#1f2032;fill-opacity:1;stroke-width:950.222"
       d="m 26.573441,154.21185 c 1.342093,0.67642 2.007771,0.44021 3.285462,-0.89117 1.277691,-1.33138 3.167324,-3.75784 4.530898,-5.89447 1.363575,-2.13663 2.201023,-3.98331 2.694914,-5.35762 0.493891,-1.37431 0.644203,-2.27618 0.68715,-3.13513 0.04295,-0.85895 -0.02147,-1.67493 -0.107368,-2.58756 -0.0859,-0.91263 -0.193261,-1.92187 -0.343578,-3.21029 -0.150317,-1.28843 -0.343574,-2.85596 -0.837473,-4.19806 -0.493898,-1.34211 -1.288401,-2.45871 -1.857451,-3.38207 -0.56905,-0.92337 -0.912622,-1.65346 -1.728625,-2.28693 -0.816004,-0.63347 -2.104389,-1.1703 -2.737853,-1.43872 -0.633464,-0.26842 -0.611994,-0.26842 -0.279149,-0.42947 0.332844,-0.16106 0.977034,-0.48315 1.438717,-0.57978 0.461683,-0.0966 0.740833,0.0322 1.610525,0.70864 0.869692,0.67643 2.329858,1.90039 3.059956,2.53384 0.730098,0.63344 0.730098,0.67644 0.504623,0.0644 -0.225476,-0.61201 -0.676409,-1.87892 -0.86967,-3.16735 -0.193262,-1.28842 -0.128843,-2.59827 -0.03221,-3.56459 0.09663,-0.96631 0.225471,-1.58903 0.257669,-1.92188 0.0322,-0.33284 -0.0322,-0.37578 -0.397255,-0.70862 -0.365053,-0.33284 -1.030723,-0.95557 -2.276201,-1.61052 -1.245478,-0.65494 -3.070689,-1.34208 -5.057008,-1.65344 -1.986319,-0.31137 -4.133626,-0.24695 -6.227312,0.37579 -2.093686,0.62275 -4.133627,1.80377 -5.583095,2.81303 -1.449469,1.00926 -2.308393,1.84671 -3.05997,2.88818 -0.751578,1.04148 -1.395771,2.28692 -1.631976,2.8667 -0.236205,0.57978 -0.06442,0.49389 0.966324,-0.11811 1.030746,-0.61201 2.920374,-1.75008 3.875935,-2.34058 0.955562,-0.59051 0.97706,-0.6335 0.987793,0.33283 0.01073,0.96633 0.01073,2.94186 0.02147,3.89744 0.01073,0.95558 0.03221,0.89114 0.246955,0.71935 0.21474,-0.17179 0.622723,-0.45094 0.547562,0.24696 -0.07516,0.6979 -0.63346,2.3728 -1.095145,4.81008 -0.461684,2.43727 -0.826726,5.63675 -0.848197,8.28875 -0.02147,2.652 0.300626,4.75636 1.170317,7.0111 0.869691,2.25474 2.286911,4.65972 4.00481,6.65677 1.717899,1.99705 3.736367,3.58606 5.07846,4.26247 z"
       id="path2"
       transform="translate(39.334191,71.931879)" /><path
       style="fill:#222838;fill-opacity:1;stroke-width:950.222"
       d="m 19.852239,128.16451 c -0.246946,-0.20399 -0.676413,0.33284 -1.052203,1.37432 -0.37579,1.04148 -0.697886,2.58754 -0.70862,4.62755 -0.01073,2.04 0.28989,4.57383 0.848208,6.77488 0.558319,2.20105 1.374293,4.0692 2.351348,5.7012 0.977056,1.632 2.115128,3.02775 3.038495,4.01554 0.923367,0.98778 1.631981,1.56756 2.233243,1.80376 0.601261,0.23621 1.095144,0.12885 1.277666,-0.19326 0.182522,-0.32211 0.05368,-0.85894 -0.354322,-1.4602 -0.408004,-0.60127 -1.095137,-1.26693 -1.986298,-2.58757 -0.891161,-1.32064 -1.986287,-3.29616 -2.845233,-5.33616 -0.858947,-2.04001 -1.481662,-4.14436 -1.846713,-6.25952 -0.365051,-2.11516 -0.472417,-4.241 -0.558312,-5.77636 -0.08589,-1.53537 -0.150314,-2.48018 -0.397259,-2.68418 z"
       id="path3"
       transform="translate(39.334191,71.931879)" /></g></svg>
