<?xml version="1.0" encoding="UTF-8" standalone="no"?>
<!-- Created with Inkscape (http://www.inkscape.org/) -->

<svg
   width="40.228455mm"
   height="54.526882mm"
   viewBox="0 0 40.228454 54.526883"
   version="1.1"
   id="svg1"
   xml:space="preserve"
   xmlns="http://www.w3.org/2000/svg"
   xmlns:svg="http://www.w3.org/2000/svg"><defs
     id="defs1" /><g
     id="layer1"
     transform="translate(17.32267,-255.55858)"><path
       style="fill:#000000;fill-opacity:1;stroke-width:950.222"
       d="m 26.192483,164.13957 c -1.533589,-0.18221 -3.294936,-1.21472 -4.980382,-2.44465 -1.685447,-1.22992 -3.294923,-2.65719 -4.858895,-4.40338 -1.563972,-1.74618 -3.082347,-3.81117 -4.418554,-6.11917 -1.336207,-2.308 -2.4901749,-4.85888 -3.3556706,-7.25798 -0.8654957,-2.3991 -1.4424776,-4.64629 -1.7309749,-7.01503 -0.2884973,-2.36874 -0.2884973,-4.85887 -0.045548,-7.31871 0.2429497,-2.45984 0.7288293,-4.88924 1.6398853,-7.1365 0.911056,-2.24726 2.2472267,-4.31225 3.5682517,-5.8003 1.321024,-1.48804 2.626829,-2.39907 4.03896,-3.2342 1.412131,-0.83513 2.930502,-1.59432 4.570398,-2.11058 1.639896,-0.51626 3.40121,-0.78957 5.010735,-0.8503 1.609525,-0.0607 3.067165,0.0911 4.798166,0.62256 1.731001,0.53145 3.735256,1.44247 5.299225,2.44463 1.563969,1.00216 2.687566,2.09539 3.674538,3.27976 0.986971,1.18437 1.837258,2.4598 2.642019,3.75046 0.804761,1.29065 1.563951,2.59646 2.21687,4.1908 0.652919,1.59434 1.199535,3.47713 1.503217,5.19294 0.303681,1.71582 0.364416,3.26456 0.334047,5.16259 -0.03037,1.89803 -0.151839,4.14522 -0.577,6.30138 -0.42516,2.15615 -1.15398,4.22114 -1.989112,6.02806 -0.835131,1.80691 -1.776523,3.35565 -3.112737,5.05629 -1.336215,1.70063 -3.067163,3.55305 -4.813346,5.3296 -1.746183,1.77655 -3.507497,3.47713 -5.041099,4.66149 -1.533601,1.18436 -2.839404,1.85245 -4.372994,1.67024 z"
       id="path1-8-6"
       transform="matrix(1.0189526,0,0,1.0147732,-24.073816,143.49088)" /><path
       style="fill:#222838;fill-opacity:1;stroke-width:950.222"
       d="m 26.192483,164.13957 c -1.533589,-0.18221 -3.294936,-1.21472 -4.980382,-2.44465 -1.685447,-1.22992 -3.294923,-2.65719 -4.858895,-4.40338 -1.563972,-1.74618 -3.082347,-3.81117 -4.418554,-6.11917 -1.336207,-2.308 -2.4901749,-4.85888 -3.3556706,-7.25798 -0.8654957,-2.3991 -1.4424776,-4.64629 -1.7309749,-7.01503 -0.2884973,-2.36874 -0.2884973,-4.85887 -0.045548,-7.31871 0.2429497,-2.45984 0.7288293,-4.88924 1.6398853,-7.1365 0.911056,-2.24726 2.2472267,-4.31225 3.5682517,-5.8003 1.321024,-1.48804 2.626829,-2.39907 4.03896,-3.2342 1.412131,-0.83513 2.930502,-1.59432 4.570398,-2.11058 1.639896,-0.51626 3.40121,-0.78957 5.010735,-0.8503 1.609525,-0.0607 3.067165,0.0911 4.798166,0.62256 1.731001,0.53145 3.735256,1.44247 5.299225,2.44463 1.563969,1.00216 2.687566,2.09539 3.674538,3.27976 0.986971,1.18437 1.837258,2.4598 2.642019,3.75046 0.804761,1.29065 1.563951,2.59646 2.21687,4.1908 0.652919,1.59434 1.199535,3.47713 1.503217,5.19294 0.303681,1.71582 0.364416,3.26456 0.334047,5.16259 -0.03037,1.89803 -0.151839,4.14522 -0.577,6.30138 -0.42516,2.15615 -1.15398,4.22114 -1.989112,6.02806 -0.835131,1.80691 -1.776523,3.35565 -3.112737,5.05629 -1.336215,1.70063 -3.067163,3.55305 -4.813346,5.3296 -1.746183,1.77655 -3.507497,3.47713 -5.041099,4.66149 -1.533601,1.18436 -2.839404,1.85245 -4.372994,1.67024 z"
       id="path1-3"
       transform="translate(-23.636646,145.48603)" /><path
       style="fill:#1f2032;fill-opacity:1;stroke-width:950.222"
       d="m 26.573441,154.21185 c 1.342093,0.67642 2.007771,0.44021 3.285462,-0.89117 1.277691,-1.33138 3.167324,-3.75784 4.530898,-5.89447 1.363575,-2.13663 2.201023,-3.98331 2.694914,-5.35762 0.493891,-1.37431 0.644203,-2.27618 0.68715,-3.13513 0.04295,-0.85895 -0.02147,-1.67493 -0.107368,-2.58756 -0.0859,-0.91263 -0.193261,-1.92187 -0.343578,-3.21029 -0.150317,-1.28843 -0.343574,-2.85596 -0.837473,-4.19806 -0.493898,-1.34211 -1.288401,-2.45871 -1.857451,-3.38207 -0.56905,-0.92337 -0.912622,-1.65346 -1.728625,-2.28693 -0.816004,-0.63347 -2.104389,-1.1703 -2.737853,-1.43872 -0.633464,-0.26842 -0.611994,-0.26842 -0.279149,-0.42947 0.332844,-0.16106 0.977034,-0.48315 1.438717,-0.57978 0.461683,-0.0966 0.740833,0.0322 1.610525,0.70864 0.869692,0.67643 2.329858,1.90039 3.059956,2.53384 0.730098,0.63344 0.730098,0.67644 0.504623,0.0644 -0.225476,-0.61201 -0.676409,-1.87892 -0.86967,-3.16735 -0.193262,-1.28842 -0.128843,-2.59827 -0.03221,-3.56459 0.09663,-0.96631 0.225471,-1.58903 0.257669,-1.92188 0.0322,-0.33284 -0.0322,-0.37578 -0.397255,-0.70862 -0.365053,-0.33284 -1.030723,-0.95557 -2.276201,-1.61052 -1.245478,-0.65494 -3.070689,-1.34208 -5.057008,-1.65344 -1.986319,-0.31137 -4.133626,-0.24695 -6.227312,0.37579 -2.093686,0.62275 -4.133627,1.80377 -5.583095,2.81303 -1.449469,1.00926 -2.308393,1.84671 -3.05997,2.88818 -0.751578,1.04148 -1.395771,2.28692 -1.631976,2.8667 -0.236205,0.57978 -0.06442,0.49389 0.966324,-0.11811 1.030746,-0.61201 2.920374,-1.75008 3.875935,-2.34058 0.955562,-0.59051 0.97706,-0.6335 0.987793,0.33283 0.01073,0.96633 0.01073,2.94186 0.02147,3.89744 0.01073,0.95558 0.03221,0.89114 0.246955,0.71935 0.21474,-0.17179 0.622723,-0.45094 0.547562,0.24696 -0.07516,0.6979 -0.63346,2.3728 -1.095145,4.81008 -0.461684,2.43727 -0.826726,5.63675 -0.848197,8.28875 -0.02147,2.652 0.300626,4.75636 1.170317,7.0111 0.869691,2.25474 2.286911,4.65972 4.00481,6.65677 1.717899,1.99705 3.736367,3.58606 5.07846,4.26247 z"
       id="path2-7"
       transform="translate(-23.636646,145.48603)" /><path
       style="fill:#222838;fill-opacity:1;stroke-width:950.222"
       d="m 19.852239,128.16451 c -0.246946,-0.20399 -0.676413,0.33284 -1.052203,1.37432 -0.37579,1.04148 -0.697886,2.58754 -0.70862,4.62755 -0.01073,2.04 0.28989,4.57383 0.848208,6.77488 0.558319,2.20105 1.374293,4.0692 2.351348,5.7012 0.977056,1.632 2.115128,3.02775 3.038495,4.01554 0.923367,0.98778 1.631981,1.56756 2.233243,1.80376 0.601261,0.23621 1.095144,0.12885 1.277666,-0.19326 0.182522,-0.32211 0.05368,-0.85894 -0.354322,-1.4602 -0.408004,-0.60127 -1.095137,-1.26693 -1.986298,-2.58757 -0.891161,-1.32064 -1.986287,-3.29616 -2.845233,-5.33616 -0.858947,-2.04001 -1.481662,-4.14436 -1.846713,-6.25952 -0.365051,-2.11516 -0.472417,-4.241 -0.558312,-5.77636 -0.08589,-1.53537 -0.150314,-2.48018 -0.397259,-2.68418 z"
       id="path3-8"
       transform="translate(-23.636646,145.48603)" /><path
       style="fill:#ffffff;fill-opacity:1;stroke-width:950.222"
       d="m 78.619292,108.66879 c 0.0055,0.49058 0.01654,1.47174 0.168121,2.82774 0.151587,1.35601 0.443726,3.0868 0.625627,4.09001 0.181901,1.00321 0.25356,1.27882 0.504367,1.76665 0.250807,0.48783 0.680746,1.18786 0.89609,1.54188 0.215344,0.35402 0.216008,0.36121 0.215985,0.36897 -2.3e-5,0.008 -6.87e-4,0.0149 -0.195561,0.98132 -0.194874,0.96637 -0.583912,2.89154 -0.852493,4.622 -0.268581,1.73046 -0.41669,3.26612 -0.471257,4.4861 -0.05457,1.21998 -0.01559,2.12423 0.03898,2.98952 0.05457,0.86529 0.124726,1.69159 0.202681,2.62314 0.07795,0.93156 0.163701,1.96832 0.175394,2.58026 0.01169,0.61194 -0.05067,0.79902 -0.0916,0.90622 -0.04093,0.10719 -0.06042,0.13449 -0.08675,0.14423 -0.02633,0.01 -0.05942,0.002 -0.168559,-0.0331 -0.109142,-0.0351 -0.294266,-0.0974 -0.665525,-0.33131 -0.371259,-0.23386 -0.928618,-0.63921 -2.010242,-1.47138 -1.081624,-0.83217 -2.687434,-2.09109 -4.1101,-3.1766 -1.422666,-1.08552 -2.662103,-1.99756 -3.523495,-2.61729 -0.861392,-0.61974 -1.344697,-0.94714 -1.597067,-1.11184 -0.25237,-0.1647 -0.27382,-0.1667 -0.359566,-0.156 -0.08575,0.0107 -0.235806,0.0341 -0.887859,0.17556 -0.652054,0.14146 -1.806059,0.40097 -2.421654,0.52522 -0.615594,0.12424 -0.69276,0.1132 -0.758905,0.0801 -0.06615,-0.0331 -0.121278,-0.0882 -0.72487,-0.61462 -0.603591,-0.52642 -1.755608,-1.5241 -2.33853,-2.02984 -0.582921,-0.50575 -0.596712,-0.51953 -0.597384,-0.58703 -6.72e-4,-0.0675 0.01173,-0.18877 0.04687,-0.46851 0.03514,-0.27975 0.09302,-0.71796 0.152274,-1.1238 0.05926,-0.40583 0.119888,-0.77927 0.191547,-1.15961 0.07166,-0.38035 0.15434,-0.76757 0.255626,-1.19063 0.101287,-0.42306 0.221174,-0.88194 0.361736,-1.34772 0.140561,-0.46578 0.301789,-0.93844 0.491271,-1.42627 0.189482,-0.48783 0.407207,-0.9908 0.656635,-1.50826 0.249428,-0.51746 0.530541,-1.04937 0.818555,-1.54341 0.288015,-0.49403 0.582908,-0.95015 0.896417,-1.39664 0.313508,-0.44649 0.64561,-0.88332 0.994256,-1.30155 0.348645,-0.41824 0.71382,-0.81787 1.098986,-1.1927 0.385165,-0.37483 0.790298,-0.72484 1.252636,-1.07831 0.462337,-0.35347 0.981849,-0.71038 1.481391,-1.02871 0.499541,-0.31832 0.979091,-0.59806 1.494483,-0.87505 0.515392,-0.27699 1.066597,-0.55121 1.627463,-0.80133 0.560866,-0.25011 1.131364,-0.47611 1.744598,-0.67662 0.613233,-0.2005 1.269165,-0.37551 1.916849,-0.51469 0.647683,-0.13919 1.287081,-0.24254 1.803849,-0.30936 0.516769,-0.0668 0.910882,-0.0971 1.159615,-0.11435 0.248734,-0.0172 0.35208,-0.0214 0.424606,-0.0244 0.07253,-0.003 0.114206,-0.005 0.135979,-0.006 0.02177,-4.7e-4 0.02333,4.3e-4 0.02388,0.003 5.51e-4,0.003 -1.63e-4,0.008 -5.16e-4,0.0109 -3.53e-4,0.003 -3.54e-4,0.003 0.0052,0.49319 z"
       id="path10"
       transform="translate(-76.405575,147.76747)" /></g></svg>
