<?xml version="1.0" encoding="UTF-8" standalone="no"?>
<!-- Created with Inkscape (http://www.inkscape.org/) -->

<svg
   width="40.228455mm"
   height="54.526882mm"
   viewBox="0 0 40.228454 54.526883"
   version="1.1"
   id="svg1"
   xml:space="preserve"
   xmlns="http://www.w3.org/2000/svg"
   xmlns:svg="http://www.w3.org/2000/svg"><defs
     id="defs1" /><g
     id="layer1"
     transform="translate(12.824764,-261.90855)"><path
       style="fill:#000000;fill-opacity:1;stroke-width:950.222"
       d="m 26.192483,164.13957 c -1.533589,-0.18221 -3.294936,-1.21472 -4.980382,-2.44465 -1.685447,-1.22992 -3.294923,-2.65719 -4.858895,-4.40338 -1.563972,-1.74618 -3.082347,-3.81117 -4.418554,-6.11917 -1.336207,-2.308 -2.4901749,-4.85888 -3.3556706,-7.25798 -0.8654957,-2.3991 -1.4424776,-4.64629 -1.7309749,-7.01503 -0.2884973,-2.36874 -0.2884973,-4.85887 -0.045548,-7.31871 0.2429497,-2.45984 0.7288293,-4.88924 1.6398853,-7.1365 0.911056,-2.24726 2.2472267,-4.31225 3.5682517,-5.8003 1.321024,-1.48804 2.626829,-2.39907 4.03896,-3.2342 1.412131,-0.83513 2.930502,-1.59432 4.570398,-2.11058 1.639896,-0.51626 3.40121,-0.78957 5.010735,-0.8503 1.609525,-0.0607 3.067165,0.0911 4.798166,0.62256 1.731001,0.53145 3.735256,1.44247 5.299225,2.44463 1.563969,1.00216 2.687566,2.09539 3.674538,3.27976 0.986971,1.18437 1.837258,2.4598 2.642019,3.75046 0.804761,1.29065 1.563951,2.59646 2.21687,4.1908 0.652919,1.59434 1.199535,3.47713 1.503217,5.19294 0.303681,1.71582 0.364416,3.26456 0.334047,5.16259 -0.03037,1.89803 -0.151839,4.14522 -0.577,6.30138 -0.42516,2.15615 -1.15398,4.22114 -1.989112,6.02806 -0.835131,1.80691 -1.776523,3.35565 -3.112737,5.05629 -1.336215,1.70063 -3.067163,3.55305 -4.813346,5.3296 -1.746183,1.77655 -3.507497,3.47713 -5.041099,4.66149 -1.533601,1.18436 -2.839404,1.85245 -4.372994,1.67024 z"
       id="path1-8-4-6"
       transform="matrix(1.0189526,0,0,1.0147732,-19.57591,149.84085)" /><path
       style="fill:#222838;fill-opacity:1;stroke-width:950.222"
       d="m 26.192483,164.13957 c -1.533589,-0.18221 -3.294936,-1.21472 -4.980382,-2.44465 -1.685447,-1.22992 -3.294923,-2.65719 -4.858895,-4.40338 -1.563972,-1.74618 -3.082347,-3.81117 -4.418554,-6.11917 -1.336207,-2.308 -2.4901749,-4.85888 -3.3556706,-7.25798 -0.8654957,-2.3991 -1.4424776,-4.64629 -1.7309749,-7.01503 -0.2884973,-2.36874 -0.2884973,-4.85887 -0.045548,-7.31871 0.2429497,-2.45984 0.7288293,-4.88924 1.6398853,-7.1365 0.911056,-2.24726 2.2472267,-4.31225 3.5682517,-5.8003 1.321024,-1.48804 2.626829,-2.39907 4.03896,-3.2342 1.412131,-0.83513 2.930502,-1.59432 4.570398,-2.11058 1.639896,-0.51626 3.40121,-0.78957 5.010735,-0.8503 1.609525,-0.0607 3.067165,0.0911 4.798166,0.62256 1.731001,0.53145 3.735256,1.44247 5.299225,2.44463 1.563969,1.00216 2.687566,2.09539 3.674538,3.27976 0.986971,1.18437 1.837258,2.4598 2.642019,3.75046 0.804761,1.29065 1.563951,2.59646 2.21687,4.1908 0.652919,1.59434 1.199535,3.47713 1.503217,5.19294 0.303681,1.71582 0.364416,3.26456 0.334047,5.16259 -0.03037,1.89803 -0.151839,4.14522 -0.577,6.30138 -0.42516,2.15615 -1.15398,4.22114 -1.989112,6.02806 -0.835131,1.80691 -1.776523,3.35565 -3.112737,5.05629 -1.336215,1.70063 -3.067163,3.55305 -4.813346,5.3296 -1.746183,1.77655 -3.507497,3.47713 -5.041099,4.66149 -1.533601,1.18436 -2.839404,1.85245 -4.372994,1.67024 z"
       id="path1-0-5"
       transform="translate(-19.13874,151.836)" /><path
       style="fill:#1f2032;fill-opacity:1;stroke-width:950.222"
       d="m 26.573441,154.21185 c 1.342093,0.67642 2.007771,0.44021 3.285462,-0.89117 1.277691,-1.33138 3.167324,-3.75784 4.530898,-5.89447 1.363575,-2.13663 2.201023,-3.98331 2.694914,-5.35762 0.493891,-1.37431 0.644203,-2.27618 0.68715,-3.13513 0.04295,-0.85895 -0.02147,-1.67493 -0.107368,-2.58756 -0.0859,-0.91263 -0.193261,-1.92187 -0.343578,-3.21029 -0.150317,-1.28843 -0.343574,-2.85596 -0.837473,-4.19806 -0.493898,-1.34211 -1.288401,-2.45871 -1.857451,-3.38207 -0.56905,-0.92337 -0.912622,-1.65346 -1.728625,-2.28693 -0.816004,-0.63347 -2.104389,-1.1703 -2.737853,-1.43872 -0.633464,-0.26842 -0.611994,-0.26842 -0.279149,-0.42947 0.332844,-0.16106 0.977034,-0.48315 1.438717,-0.57978 0.461683,-0.0966 0.740833,0.0322 1.610525,0.70864 0.869692,0.67643 2.329858,1.90039 3.059956,2.53384 0.730098,0.63344 0.730098,0.67644 0.504623,0.0644 -0.225476,-0.61201 -0.676409,-1.87892 -0.86967,-3.16735 -0.193262,-1.28842 -0.128843,-2.59827 -0.03221,-3.56459 0.09663,-0.96631 0.225471,-1.58903 0.257669,-1.92188 0.0322,-0.33284 -0.0322,-0.37578 -0.397255,-0.70862 -0.365053,-0.33284 -1.030723,-0.95557 -2.276201,-1.61052 -1.245478,-0.65494 -3.070689,-1.34208 -5.057008,-1.65344 -1.986319,-0.31137 -4.133626,-0.24695 -6.227312,0.37579 -2.093686,0.62275 -4.133627,1.80377 -5.583095,2.81303 -1.449469,1.00926 -2.308393,1.84671 -3.05997,2.88818 -0.751578,1.04148 -1.395771,2.28692 -1.631976,2.8667 -0.236205,0.57978 -0.06442,0.49389 0.966324,-0.11811 1.030746,-0.61201 2.920374,-1.75008 3.875935,-2.34058 0.955562,-0.59051 0.97706,-0.6335 0.987793,0.33283 0.01073,0.96633 0.01073,2.94186 0.02147,3.89744 0.01073,0.95558 0.03221,0.89114 0.246955,0.71935 0.21474,-0.17179 0.622723,-0.45094 0.547562,0.24696 -0.07516,0.6979 -0.63346,2.3728 -1.095145,4.81008 -0.461684,2.43727 -0.826726,5.63675 -0.848197,8.28875 -0.02147,2.652 0.300626,4.75636 1.170317,7.0111 0.869691,2.25474 2.286911,4.65972 4.00481,6.65677 1.717899,1.99705 3.736367,3.58606 5.07846,4.26247 z"
       id="path2-76-1"
       transform="translate(-19.13874,151.836)" /><path
       style="fill:#222838;fill-opacity:1;stroke-width:950.222"
       d="m 19.852239,128.16451 c -0.246946,-0.20399 -0.676413,0.33284 -1.052203,1.37432 -0.37579,1.04148 -0.697886,2.58754 -0.70862,4.62755 -0.01073,2.04 0.28989,4.57383 0.848208,6.77488 0.558319,2.20105 1.374293,4.0692 2.351348,5.7012 0.977056,1.632 2.115128,3.02775 3.038495,4.01554 0.923367,0.98778 1.631981,1.56756 2.233243,1.80376 0.601261,0.23621 1.095144,0.12885 1.277666,-0.19326 0.182522,-0.32211 0.05368,-0.85894 -0.354322,-1.4602 -0.408004,-0.60127 -1.095137,-1.26693 -1.986298,-2.58757 -0.891161,-1.32064 -1.986287,-3.29616 -2.845233,-5.33616 -0.858947,-2.04001 -1.481662,-4.14436 -1.846713,-6.25952 -0.365051,-2.11516 -0.472417,-4.241 -0.558312,-5.77636 -0.08589,-1.53537 -0.150314,-2.48018 -0.397259,-2.68418 z"
       id="path3-3-0"
       transform="translate(-19.13874,151.836)" /><path
       style="fill:#ffffff;fill-opacity:1;stroke-width:950.222"
       d="m 136.38067,109.88235 c 0.004,0.32838 0.0117,0.98514 0.0741,1.75104 0.0624,0.76591 0.17929,1.64092 0.60122,2.98174 0.42194,1.34082 1.14884,3.14736 1.51425,4.06235 0.36541,0.915 0.36932,0.93841 0.37126,0.9516 0.002,0.0132 0.002,0.0172 -0.24946,1.15912 -0.2514,1.14194 -0.75419,3.42252 -1.00726,4.57125 -0.25306,1.14873 -0.25642,1.16566 -0.25879,1.17698 -0.002,0.0113 -0.004,0.0165 0.12083,2.21416 0.12445,2.19767 0.37466,6.5874 0.50076,8.79496 0.12611,2.20756 0.12811,2.23296 0.12716,2.25732 -9.5e-4,0.0244 -0.005,0.0478 -0.18675,1.32114 -0.18189,1.27336 -0.54177,3.79662 -0.72241,5.06173 -0.18065,1.26512 -0.18193,1.27136 -0.1824,1.27607 -4.7e-4,0.005 -2.1e-4,0.007 0.96514,2.08998 0.96534,2.08323 2.89559,6.24655 3.86088,8.32925 0.96529,2.0827 0.96572,2.08571 0.96336,2.08921 -0.002,0.003 -0.007,0.008 -0.053,0.0493 -0.0457,0.0408 -0.13248,0.118 -0.2298,0.20395 -0.0973,0.0859 -0.20516,0.1807 -0.30937,0.27148 -0.10421,0.0908 -0.20481,0.17759 -0.32953,0.28336 -0.12471,0.10577 -0.27354,0.23048 -0.43925,0.36605 -0.16571,0.13556 -0.34829,0.28197 -0.57188,0.45096 -0.22359,0.16898 -0.48817,0.36052 -0.71227,0.514 -0.22411,0.15348 -0.40773,0.26889 -0.58223,0.37104 -0.1745,0.10215 -0.33985,0.19103 -0.49144,0.26596 -0.15159,0.0749 -0.28939,0.13591 -0.39498,0.17967 -0.1056,0.0438 -0.17898,0.0703 -0.25871,0.0968 -0.0797,0.0265 -0.1659,0.0531 -0.24926,0.0767 -0.0834,0.0236 -0.16398,0.0443 -0.25976,0.0648 -0.0958,0.0205 -0.2067,0.0408 -0.32987,0.0563 -0.12317,0.0155 -0.25857,0.0262 -0.37036,0.0317 -0.11179,0.006 -0.19998,0.006 -0.31228,0.001 -0.1123,-0.004 -0.24875,-0.0138 -0.35536,-0.0245 -0.10662,-0.0107 -0.18345,-0.0228 -0.26408,-0.0372 -0.0806,-0.0145 -0.16503,-0.0313 -0.25253,-0.0513 -0.0875,-0.02 -0.17811,-0.0431 -0.26236,-0.0662 -0.0842,-0.0231 -0.16207,-0.0462 -0.25372,-0.0762 -0.0916,-0.03 -0.19704,-0.0668 -0.2949,-0.10319 -0.0978,-0.0364 -0.1881,-0.0722 -0.27543,-0.10749 -0.0873,-0.0353 -0.17173,-0.0701 -0.25355,-0.10593 -0.0818,-0.0358 -0.16105,-0.0727 -0.26115,-0.1211 -0.10009,-0.0484 -0.22099,-0.10834 -0.31746,-0.15726 -0.0965,-0.0489 -0.16846,-0.0868 -0.24217,-0.12712 -0.0737,-0.0403 -0.14918,-0.083 -0.23671,-0.13299 -0.0875,-0.05 -0.18705,-0.10714 -0.27114,-0.15728 -0.0841,-0.0501 -0.15258,-0.0932 -0.22768,-0.13933 -0.0751,-0.0462 -0.15676,-0.0954 -0.26941,-0.16709 -0.11265,-0.0717 -0.25633,-0.16572 -0.37396,-0.24425 -0.11762,-0.0785 -0.20931,-0.14161 -0.31732,-0.21603 -0.10801,-0.0744 -0.23236,-0.16019 -0.34778,-0.24202 -0.11543,-0.0818 -0.22186,-0.15967 -0.33606,-0.24425 -0.11421,-0.0846 -0.23616,-0.17587 -0.34848,-0.26097 -0.11231,-0.0851 -0.21497,-0.16398 -0.31883,-0.24494 -0.10386,-0.081 -0.20895,-0.16399 -0.31368,-0.24736 -0.10473,-0.0834 -0.20912,-0.16709 -0.3092,-0.24891 -0.10009,-0.0818 -0.19585,-0.16174 -0.30558,-0.25442 -0.10973,-0.0927 -0.23341,-0.19809 -0.34088,-0.29041 -0.10748,-0.0923 -0.1988,-0.17158 -0.28545,-0.24824 -0.0866,-0.0767 -0.16863,-0.15071 -0.24942,-0.22445 -0.0808,-0.0737 -0.16036,-0.14709 -0.26199,-0.24201 -0.10164,-0.0949 -0.22531,-0.21135 -0.33866,-0.31867 -0.11335,-0.10731 -0.21635,-0.2055 -0.33314,-0.32091 -0.11679,-0.11541 -0.24735,-0.24804 -0.35603,-0.35827 -0.10867,-0.11023 -0.19553,-0.19811 -0.49422,-0.53488 -0.2987,-0.33676 -0.80925,-0.92241 -1.37735,-1.61902 -0.5681,-0.6966 -1.19372,-1.50412 -1.77388,-2.32819 -0.58016,-0.82408 -1.11483,-1.66467 -1.57923,-2.43913 -0.46441,-0.77447 -0.85851,-1.48276 -1.24713,-2.2531 -0.38861,-0.77033 -0.77169,-1.60264 -1.11896,-2.39502 -0.34727,-0.79238 -0.6587,-1.54478 -0.92053,-2.21589 -0.26183,-0.67111 -0.47404,-1.2609 -0.69453,-1.95543 -0.22049,-0.69454 -0.44924,-1.49379 -0.65181,-2.34405 -0.20257,-0.85026 -0.37896,-1.75148 -0.50023,-2.4722 -0.12127,-0.72073 -0.18741,-1.26089 -0.24529,-1.97197 -0.0579,-0.71108 -0.10749,-1.59301 -0.1323,-2.11253 -0.0248,-0.51952 -0.0248,-0.67661 -0.0152,-1.04869 0.01,-0.37208 0.029,-0.95911 0.0675,-1.5751 0.0386,-0.61599 0.0965,-1.2609 0.15296,-1.81763 0.0565,-0.55673 0.11163,-1.02525 0.1888,-1.51446 0.0772,-0.48921 0.17638,-0.99907 0.30316,-1.56959 0.12679,-0.57051 0.28113,-1.20164 0.41618,-1.69774 0.13505,-0.4961 0.2508,-0.85714 0.38033,-1.22232 0.12954,-0.36518 0.27285,-0.73449 0.4837,-1.20992 0.21084,-0.47543 0.4892,-1.05695 0.78272,-1.61231 0.29353,-0.55535 0.6022,-1.0845 0.97014,-1.63986 0.36794,-0.55535 0.79512,-1.13687 1.12861,-1.56407 0.33349,-0.42719 0.57326,-0.70004 0.95774,-1.07763 0.38448,-0.37758 0.91364,-0.85989 1.3367,-1.21129 0.42306,-0.3514 0.74,-0.57188 1.04317,-0.77583 0.30317,-0.20396 0.59256,-0.39137 0.93156,-0.60083 0.339,-0.20947 0.7276,-0.44097 1.17822,-0.68489 0.45062,-0.24391 0.96324,-0.50022 1.44005,-0.71796 0.47681,-0.21773 0.91777,-0.39687 1.31878,-0.54845 0.40101,-0.15159 0.76205,-0.27561 1.13551,-0.39136 0.37345,-0.11576 0.75929,-0.22324 1.20027,-0.32384 0.44098,-0.1006 0.93706,-0.1943 1.32429,-0.25907 0.38723,-0.0648 0.6656,-0.1006 0.95223,-0.13092 0.28663,-0.0303 0.58152,-0.0551 0.79133,-0.0694 0.20982,-0.0143 0.33453,-0.0181 0.447,-0.0217 0.11248,-0.004 0.21273,-0.007 0.27546,-0.009 0.0627,-0.002 0.0878,-0.003 0.10088,-0.003 0.013,-3.3e-4 0.014,-3.3e-4 0.0149,6.9e-4 8.4e-4,0.001 0.001,0.003 0.002,0.006 1.9e-4,0.003 -1.3e-4,0.007 -3.1e-4,0.009 -1.8e-4,0.002 -5.9e-4,0.003 0.003,0.33142 z"
       id="path11-9"
       transform="translate(-129.56653,152.74158)" /><path
       style="fill:#302e31;fill-opacity:1;stroke-width:950.222"
       d="m 125.8277,149.93199 c 0.29622,0.24166 0.88867,0.72497 1.48112,1.14203 0.59246,0.41706 1.18489,0.76784 1.66822,0.98611 0.48332,0.21828 0.85748,0.30402 1.333,0.3391 0.47552,0.0351 1.05237,0.0195 1.43824,-0.0546 0.38587,-0.0741 0.58075,-0.20659 0.74835,-0.37419 0.1676,-0.1676 0.30792,-0.37028 0.43264,-0.83801 0.12473,-0.46773 0.23386,-1.20048 0.24556,-2.04238 0.0117,-0.84191 -0.0741,-1.79293 -0.40537,-2.95445 -0.33131,-1.16152 -0.90815,-2.53348 -1.57077,-3.58976 -0.66261,-1.05627 -1.41094,-1.79682 -2.06186,-2.27624 -0.65092,-0.47941 -1.20438,-0.69768 -1.81242,-0.85749 -0.60805,-0.1598 -1.27064,-0.26114 -1.82412,-0.17929 -0.55347,0.0819 -0.9978,0.3469 -1.30182,0.60025 -0.30402,0.25335 -0.46772,0.495 -0.61973,0.85359 -0.15201,0.35859 -0.29232,0.8341 -0.39366,1.3564 -0.10134,0.52229 -0.16371,1.09134 -0.14422,1.76565 0.0195,0.6743 0.12083,1.45382 0.27284,2.08915 0.15201,0.63533 0.35469,1.12643 0.73277,1.73448 0.37808,0.60804 0.93154,1.33299 1.20827,1.69548 0.27674,0.36248 0.27674,0.36251 0.57296,0.60416 z"
       id="path12-9"
       transform="translate(-129.56653,152.74158)" /><path
       style="fill:#ffffff;fill-opacity:1;stroke-width:950.222"
       d="m 7.53596,288.0001 9.40121,-4.30303 -4.63045,5.5425 z"
       id="path13" /><path
       style="fill:#ffffff;fill-opacity:1;stroke-width:950.222"
       d="m 146.94762,131.41742 c 0.4491,0.44549 1.34729,1.33648 2.73362,3.53448 1.38632,2.19801 3.26071,5.7029 4.20686,7.47828 0.94616,1.77537 0.96408,1.82127 0.97319,1.84516 0.009,0.0239 0.009,0.0259 0.009,0.0289 -3.6e-4,0.003 -0.001,0.007 -0.003,0.0128 -0.002,0.006 -0.005,0.0143 -0.0634,0.16895 -0.0588,0.15461 -0.1739,0.4557 -0.29965,0.76335 -0.12575,0.30765 -0.26217,0.62184 -0.39309,0.91536 -0.13091,0.29353 -0.25631,0.56637 -0.40031,0.86197 -0.14401,0.29559 -0.30662,0.61391 -0.4899,0.94809 -0.18328,0.33418 -0.38723,0.68419 -0.64493,1.09554 -0.25769,0.41135 -0.56913,0.88401 -0.88263,1.3298 -0.3135,0.4458 -0.62907,0.86472 -0.94809,1.27124 -0.31902,0.40653 -0.64147,0.80064 -1.01905,1.23817 -0.37759,0.43753 -0.81029,0.91846 -1.17202,1.3181 -0.36174,0.39963 -0.6525,0.71795 -1.01149,1.09554 -0.35898,0.37758 -0.78616,0.81441 -1.17615,1.21267 -0.38999,0.39826 -0.74277,0.75792 -1.16996,1.18649 -0.4272,0.42858 -0.92879,0.92604 -1.33325,1.31534 -0.40446,0.3893 -0.71175,0.67041 -0.884,0.82682 -0.17225,0.15641 -0.20946,0.1881 -0.24321,0.21222 -0.0338,0.0241 -0.0641,0.0407 -0.0896,0.0599 -0.0255,0.0193 -0.0461,0.0413 -0.10059,0.013 -0.0544,-0.0283 -0.14261,-0.1068 -0.2625,-0.28939 -0.11988,-0.18259 -0.27147,-0.46922 -1.32982,-2.50807 -1.05836,-2.03884 -3.0234,-5.82974 -4.22643,-9.12535 -1.20303,-3.29561 -1.644,-6.09572 -1.5117,-8.08011 0.1323,-1.98439 0.83784,-3.15294 1.99541,-3.88054 1.15757,-0.72761 2.76708,-1.01424 3.94669,-1.44419 1.17961,-0.42996 1.92925,-1.00321 2.74782,-1.66881 0.81856,-0.6656 1.70599,-1.4235 2.14972,-1.80246 0.44373,-0.37896 0.44338,-0.37879 0.89247,0.0667 z"
       id="path14"
       transform="translate(-129.56653,152.74158)" /><path
       style="fill:#ffffff;fill-opacity:1;stroke-width:950.222"
       d="m 138.63269,135.35409 c -0.62839,-0.0744 -1.69774,-0.0248 -2.11115,0.47681 -0.41341,0.50161 -0.17088,1.4552 0.55398,1.81349 0.72486,0.35828 1.932,0.12126 2.43912,-0.28113 0.50711,-0.40239 0.31419,-0.97013 0.12401,-1.35323 -0.19017,-0.3831 -0.37757,-0.58153 -1.00596,-0.65594 z"
       id="path15"
       transform="translate(-129.56653,152.74158)" /><path
       style="fill:#302e31;fill-opacity:1;stroke-width:950.222"
       d="m 125.8277,149.93199 c 0.29622,0.24166 0.88867,0.72497 1.48112,1.14203 0.59246,0.41706 1.18489,0.76784 1.66822,0.98611 0.48332,0.21828 0.85748,0.30402 1.333,0.3391 0.47552,0.0351 1.05237,0.0195 1.43824,-0.0546 0.38587,-0.0741 0.58075,-0.20659 0.74835,-0.37419 0.1676,-0.1676 0.30792,-0.37028 0.43264,-0.83801 0.12473,-0.46773 0.23386,-1.20048 0.24556,-2.04238 0.0117,-0.84191 -0.0741,-1.79293 -0.40537,-2.95445 -0.33131,-1.16152 -0.90815,-2.53348 -1.57077,-3.58976 -0.66261,-1.05627 -1.41094,-1.79682 -2.06186,-2.27624 -0.65092,-0.47941 -1.20438,-0.69768 -1.81242,-0.85749 -0.60805,-0.1598 -1.27064,-0.26114 -1.82412,-0.17929 -0.55347,0.0819 -0.9978,0.3469 -1.30182,0.60025 -0.30402,0.25335 -0.46772,0.495 -0.61973,0.85359 -0.15201,0.35859 -0.29232,0.8341 -0.39366,1.3564 -0.10134,0.52229 -0.16371,1.09134 -0.14422,1.76565 0.0195,0.6743 0.12083,1.45382 0.27284,2.08915 0.15201,0.63533 0.35469,1.12643 0.73277,1.73448 0.37808,0.60804 0.93154,1.33299 1.20827,1.69548 0.27674,0.36248 0.27674,0.36251 0.57296,0.60416 z"
       id="path12-9-4"
       transform="matrix(-1,0,0,1,144.99809,152.86887)" /></g></svg>
